ISO-10303-21;
HEADER;
FILE_DESCRIPTION (( 'STEP AP214' ),
    '1' );
FILE_NAME ('SRP1245A-220M.STEP',
    '2023-03-20T23:24:03',
    ( '' ),
    ( '' ),
    'SwSTEP 2.0',
    'SolidWorks 2019',
    '' );
FILE_SCHEMA (( 'AUTOMOTIVE_DESIGN' ));
ENDSEC;

DATA;
#1 = EDGE_CURVE ( 'NONE', #934, #1005, #33, .T. ) ;
#2 = DIRECTION ( 'NONE',  ( 0.000000000000000000, 0.000000000000000000, -1.000000000000000000 ) ) ;
#3 = ORIENTED_EDGE ( 'NONE', *, *, #261, .T. ) ;
#4 = AXIS2_PLACEMENT_3D ( 'NONE', #806, #228, #1168 ) ;
#5 = DIRECTION ( 'NONE',  ( 0.000000000000000000, -1.000000000000000000, 0.000000000000000000 ) ) ;
#6 = DIRECTION ( 'NONE',  ( 1.000000000000000000, 0.000000000000000000, 0.000000000000000000 ) ) ;
#7 =( GEOMETRIC_REPRESENTATION_CONTEXT ( 3 ) GLOBAL_UNCERTAINTY_ASSIGNED_CONTEXT ( ( #295 ) ) GLOBAL_UNIT_ASSIGNED_CONTEXT ( ( #408, #112, #1146 ) ) REPRESENTATION_CONTEXT ( 'NONE', 'WORKASPACE' ) );
#8 = CIRCLE ( 'NONE', #504, 0.5000000000000004441 ) ;
#9 = ORIENTED_EDGE ( 'NONE', *, *, #609, .T. ) ;
#10 = CIRCLE ( 'NONE', #540, 0.5000000000000004441 ) ;
#11 = AXIS2_PLACEMENT_3D ( 'NONE', #186, #2, #964 ) ;
#12 = CARTESIAN_POINT ( 'NONE',  ( 6.299999999999998934, 4.500000000000000000, 5.750000000000000000 ) ) ;
#13 = VECTOR ( 'NONE', #789, 1000.000000000000000 ) ;
#14 = SURFACE_SIDE_STYLE ('',( #607 ) ) ;
#15 = SURFACE_STYLE_FILL_AREA ( #501 ) ;
#16 = VERTEX_POINT ( 'NONE', #983 ) ;
#17 = ORIENTED_EDGE ( 'NONE', *, *, #1081, .T. ) ;
#18 = CARTESIAN_POINT ( 'NONE',  ( 6.299999999999998046, 2.499999999999999556, 2.349999999999996536 ) ) ;
#19 = ORIENTED_EDGE ( 'NONE', *, *, #889, .T. ) ;
#20 = EDGE_CURVE ( 'NONE', #148, #932, #194, .T. ) ;
#21 =( NAMED_UNIT ( * ) SI_UNIT ( $, .STERADIAN. ) SOLID_ANGLE_UNIT ( ) );
#22 = ADVANCED_FACE ( 'NONE', ( #516 ), #340, .T. ) ;
#23 = DIRECTION ( 'NONE',  ( 0.000000000000000000, 1.000000000000000000, 0.000000000000000000 ) ) ;
#24 =( NAMED_UNIT ( * ) PLANE_ANGLE_UNIT ( ) SI_UNIT ( $, .RADIAN. ) );
#25 = DIRECTION ( 'NONE',  ( 0.000000000000000000, 0.000000000000000000, 1.000000000000000000 ) ) ;
#26 = VERTEX_POINT ( 'NONE', #512 ) ;
#27 = CARTESIAN_POINT ( 'NONE',  ( 6.299999999999998046, 3.499999999999999556, -0.7500000000000002220 ) ) ;
#28 = EDGE_CURVE ( 'NONE', #802, #291, #525, .T. ) ;
#29 = VECTOR ( 'NONE', #5, 1000.000000000000000 ) ;
#30 = AXIS2_PLACEMENT_3D ( 'NONE', #56, #361, #34 ) ;
#31 = PRESENTATION_LAYER_ASSIGNMENT (  '', '', ( #859 ) ) ;
#32 = MECHANICAL_DESIGN_GEOMETRIC_PRESENTATION_REPRESENTATION (  '', ( #423 ), #193 ) ;
#33 = LINE ( 'NONE', #999, #54 ) ;
#34 = DIRECTION ( 'NONE',  ( 0.000000000000000000, -0.000000000000000000, 1.000000000000000000 ) ) ;
#35 = LINE ( 'NONE', #141, #1138 ) ;
#36 = SURFACE_SIDE_STYLE ('',( #987 ) ) ;
#37 = ORIENTED_EDGE ( 'NONE', *, *, #969, .T. ) ;
#38 = CARTESIAN_POINT ( 'NONE',  ( 6.749999999999997335, 3.499999999999999556, 0.7500000000000002220 ) ) ;
#39 = DIRECTION ( 'NONE',  ( -1.387778780781445676E-16, -0.000000000000000000, -1.000000000000000000 ) ) ;
#40 = VERTEX_POINT ( 'NONE', #126 ) ;
#41 = UNCERTAINTY_MEASURE_WITH_UNIT (LENGTH_MEASURE( 1.000000000000000082E-05 ), #833, 'distance_accuracy_value', 'NONE');
#42 = PLANE ( 'NONE',  #286 ) ;
#43 = ORIENTED_EDGE ( 'NONE', *, *, #793, .F. ) ;
#44 = EDGE_CURVE ( 'NONE', #1050, #942, #225, .T. ) ;
#45 = ADVANCED_FACE ( 'NONE', ( #598 ), #420, .T. ) ;
#46 = PRESENTATION_STYLE_ASSIGNMENT (( #911 ) ) ;
#47 = CARTESIAN_POINT ( 'NONE',  ( -6.750000000000000888, 2.499999999999999556, 2.350000000000000089 ) ) ;
#48 =( NAMED_UNIT ( * ) PLANE_ANGLE_UNIT ( ) SI_UNIT ( $, .RADIAN. ) );
#49 = ORIENTED_EDGE ( 'NONE', *, *, #1100, .F. ) ;
#50 = MECHANICAL_DESIGN_GEOMETRIC_PRESENTATION_REPRESENTATION (  '', ( #1074 ), #1226 ) ;
#51 = VECTOR ( 'NONE', #1224, 1000.000000000000000 ) ;
#52 = CARTESIAN_POINT ( 'NONE',  ( 6.749999999999997335, 4.799999999999999822, 2.349999999999996536 ) ) ;
#53 = MECHANICAL_DESIGN_GEOMETRIC_PRESENTATION_REPRESENTATION (  '', ( #1134 ), #219 ) ;
#54 = VECTOR ( 'NONE', #1166, 1000.000000000000000 ) ;
#55 = DIRECTION ( 'NONE',  ( -0.000000000000000000, -0.000000000000000000, -1.000000000000000000 ) ) ;
#56 = CARTESIAN_POINT ( 'NONE',  ( 4.497224362268003262, 3.499999999999999556, 0.7500000000000002220 ) ) ;
#57 =( GEOMETRIC_REPRESENTATION_CONTEXT ( 3 ) GLOBAL_UNCERTAINTY_ASSIGNED_CONTEXT ( ( #851 ) ) GLOBAL_UNIT_ASSIGNED_CONTEXT ( ( #1143, #915, #1012 ) ) REPRESENTATION_CONTEXT ( 'NONE', 'WORKASPACE' ) );
#58 = ORIENTED_EDGE ( 'NONE', *, *, #721, .F. ) ;
#59 = UNCERTAINTY_MEASURE_WITH_UNIT (LENGTH_MEASURE( 1.000000000000000082E-05 ), #965, 'distance_accuracy_value', 'NONE');
#60 = ORIENTED_EDGE ( 'NONE', *, *, #656, .F. ) ;
#61 = PRODUCT_CONTEXT ( 'NONE', #1091, 'mechanical' ) ;
#62 = DIRECTION ( 'NONE',  ( 0.000000000000000000, 1.000000000000000000, -4.336808689942017736E-16 ) ) ;
#63 = CARTESIAN_POINT ( 'NONE',  ( 6.749999999999997335, 4.799999999999999822, -2.350000000000001865 ) ) ;
#64 = DIRECTION ( 'NONE',  ( -1.000000000000000000, -0.000000000000000000, -0.000000000000000000 ) ) ;
#65 = EDGE_CURVE ( 'NONE', #740, #949, #791, .T. ) ;
#66 = CARTESIAN_POINT ( 'NONE',  ( 3.999999999999998224, 4.799999999999999822, -2.350000000000000977 ) ) ;
#67 = LINE ( 'NONE', #1115, #1015 ) ;
#68 = ORIENTED_EDGE ( 'NONE', *, *, #484, .F. ) ;
#69 = APPLICATION_PROTOCOL_DEFINITION ( 'draft international standard', 'automotive_design', 1998, #1091 ) ;
#70 = FACE_OUTER_BOUND ( 'NONE', #266, .T. ) ;
#71 = UNCERTAINTY_MEASURE_WITH_UNIT (LENGTH_MEASURE( 1.000000000000000082E-05 ), #522, 'distance_accuracy_value', 'NONE');
#72 = CARTESIAN_POINT ( 'NONE',  ( 0.000000000000000000, 2.499999999999999556, 0.000000000000000000 ) ) ;
#73 = ORIENTED_EDGE ( 'NONE', *, *, #814, .F. ) ;
#74 = LINE ( 'NONE', #1196, #899 ) ;
#75 = MECHANICAL_DESIGN_GEOMETRIC_PRESENTATION_REPRESENTATION (  '', ( #696 ), #7 ) ;
#76 = AXIS2_PLACEMENT_3D ( 'NONE', #354, #634, #544 ) ;
#77 = MECHANICAL_DESIGN_GEOMETRIC_PRESENTATION_REPRESENTATION (  '', ( #1121 ), #244 ) ;
#78 = COLOUR_RGB ( '',0.6666666666666666297, 0.6980392156862744724, 0.7686274509803920907 ) ;
#79 = MANIFOLD_SOLID_BREP ( 'Cut-Extrude2', #719 ) ;
#80 = VERTEX_POINT ( 'NONE', #1112 ) ;
#81 = LINE ( 'NONE', #287, #756 ) ;
#82 = EDGE_CURVE ( 'NONE', #127, #319, #8, .T. ) ;
#83 = EDGE_CURVE ( 'NONE', #624, #40, #1008, .T. ) ;
#84 = CARTESIAN_POINT ( 'NONE',  ( 6.749999999999997335, 4.799999999999999822, -2.350000000000001865 ) ) ;
#85 = CARTESIAN_POINT ( 'NONE',  ( -6.750000000000000888, 2.499999999999999556, 0.7500000000000002220 ) ) ;
#86 = CARTESIAN_POINT ( 'NONE',  ( -6.299999999999999822, 0.000000000000000000, 6.249999999999999112 ) ) ;
#87 = ORIENTED_EDGE ( 'NONE', *, *, #513, .F. ) ;
#88 = PRESENTATION_STYLE_ASSIGNMENT (( #285 ) ) ;
#89 = PRESENTATION_STYLE_ASSIGNMENT (( #1038 ) ) ;
#90 = LINE ( 'NONE', #479, #51 ) ;
#91 = CARTESIAN_POINT ( 'NONE',  ( -6.300000000000000711, 2.499999999999999556, 0.7500000000000002220 ) ) ;
#92 =( NAMED_UNIT ( * ) PLANE_ANGLE_UNIT ( ) SI_UNIT ( $, .RADIAN. ) );
#93 = CARTESIAN_POINT ( 'NONE',  ( 0.000000000000000000, 0.000000000000000000, 0.000000000000000000 ) ) ;
#94 = VERTEX_POINT ( 'NONE', #839 ) ;
#95 = LINE ( 'NONE', #869, #102 ) ;
#96 = CARTESIAN_POINT ( 'NONE',  ( 6.299999999999997158, 4.500000000000000000, -5.750000000000001776 ) ) ;
#97 =( NAMED_UNIT ( * ) PLANE_ANGLE_UNIT ( ) SI_UNIT ( $, .RADIAN. ) );
#98 = VECTOR ( 'NONE', #1240, 1000.000000000000000 ) ;
#99 = PRESENTATION_LAYER_ASSIGNMENT (  '', '', ( #180 ) ) ;
#100 = SURFACE_STYLE_USAGE ( .BOTH. , #947 ) ;
#101 = CARTESIAN_POINT ( 'NONE',  ( 6.749999999999997335, 2.499999999999999556, 2.349999999999996536 ) ) ;
#102 = VECTOR ( 'NONE', #572, 1000.000000000000000 ) ;
#103 = ORIENTED_EDGE ( 'NONE', *, *, #1053, .F. ) ;
#104 = CARTESIAN_POINT ( 'NONE',  ( -6.300000000000000711, 4.500000000000000000, 2.349999999999999645 ) ) ;
#105 =( NAMED_UNIT ( * ) SI_UNIT ( $, .STERADIAN. ) SOLID_ANGLE_UNIT ( ) );
#106 = SURFACE_STYLE_FILL_AREA ( #1160 ) ;
#107 = ADVANCED_FACE ( 'NONE', ( #161 ), #936, .F. ) ;
#108 = EDGE_CURVE ( 'NONE', #1089, #649, #1118, .T. ) ;
#109 = VERTEX_POINT ( 'NONE', #63 ) ;
#110 = LINE ( 'NONE', #766, #272 ) ;
#111 = VERTEX_POINT ( 'NONE', #444 ) ;
#112 =( NAMED_UNIT ( * ) PLANE_ANGLE_UNIT ( ) SI_UNIT ( $, .RADIAN. ) );
#113 = ORIENTED_EDGE ( 'NONE', *, *, #184, .F. ) ;
#114 = SURFACE_SIDE_STYLE ('',( #968 ) ) ;
#115 = LINE ( 'NONE', #1071, #1192 ) ;
#116 = ORIENTED_EDGE ( 'NONE', *, *, #754, .T. ) ;
#117 = PRESENTATION_LAYER_ASSIGNMENT (  '', '', ( #895 ) ) ;
#118 = MECHANICAL_DESIGN_GEOMETRIC_PRESENTATION_REPRESENTATION (  '', ( #243 ), #1135 ) ;
#119 = VERTEX_POINT ( 'NONE', #254 ) ;
#120 =( GEOMETRIC_REPRESENTATION_CONTEXT ( 3 ) GLOBAL_UNCERTAINTY_ASSIGNED_CONTEXT ( ( #59 ) ) GLOBAL_UNIT_ASSIGNED_CONTEXT ( ( #965, #876, #21 ) ) REPRESENTATION_CONTEXT ( 'NONE', 'WORKASPACE' ) );
#121 = CARTESIAN_POINT ( 'NONE',  ( 6.749999999999997335, 2.499999999999999556, -2.349999999999999645 ) ) ;
#122 = AXIS2_PLACEMENT_3D ( 'NONE', #400, #1151, #1242 ) ;
#123 = EDGE_CURVE ( 'NONE', #470, #942, #378, .T. ) ;
#124 = EDGE_LOOP ( 'NONE', ( #1163, #1128, #1011, #725 ) ) ;
#125 = CYLINDRICAL_SURFACE ( 'NONE', #723, 0.5000000000000004441 ) ;
#126 = CARTESIAN_POINT ( 'NONE',  ( -4.000000000000001776, 4.799999999999999822, -2.350000000000000089 ) ) ;
#127 = VERTEX_POINT ( 'NONE', #727 ) ;
#128 = EDGE_CURVE ( 'NONE', #26, #802, #1197, .T. ) ;
#129 = CARTESIAN_POINT ( 'NONE',  ( -6.750000000000000888, 4.799999999999999822, -2.350000000000000089 ) ) ;
#130 = ORIENTED_EDGE ( 'NONE', *, *, #682, .F. ) ;
#131 =( NAMED_UNIT ( * ) PLANE_ANGLE_UNIT ( ) SI_UNIT ( $, .RADIAN. ) );
#132 = COLOUR_RGB ( '',0.6666666666666666297, 0.6980392156862744724, 0.7686274509803920907 ) ;
#133 = VECTOR ( 'NONE', #237, 1000.000000000000000 ) ;
#134 = MECHANICAL_DESIGN_GEOMETRIC_PRESENTATION_REPRESENTATION (  '', ( #975 ), #718 ) ;
#135 = VECTOR ( 'NONE', #1087, 1000.000000000000000 ) ;
#136 = ORIENTED_EDGE ( 'NONE', *, *, #986, .T. ) ;
#137 = CARTESIAN_POINT ( 'NONE',  ( -4.000000000000001776, 4.799999999999999822, -2.350000000000000089 ) ) ;
#138 = SURFACE_STYLE_FILL_AREA ( #991 ) ;
#139 = DIRECTION ( 'NONE',  ( 0.000000000000000000, -1.000000000000000000, 0.000000000000000000 ) ) ;
#140 = ORIENTED_EDGE ( 'NONE', *, *, #867, .F. ) ;
#141 = CARTESIAN_POINT ( 'NONE',  ( -4.497224362268006814, 3.499999999999999556, 0.7499999999999997780 ) ) ;
#142 = SURFACE_SIDE_STYLE ('',( #515 ) ) ;
#143 = ADVANCED_FACE ( 'NONE', ( #1031 ), #1129, .T. ) ;
#144 = ORIENTED_EDGE ( 'NONE', *, *, #867, .T. ) ;
#145 = CARTESIAN_POINT ( 'NONE',  ( -6.750000000000000888, 2.499999999999999556, 2.350000000000000089 ) ) ;
#146 = EDGE_LOOP ( 'NONE', ( #669, #1195, #279, #140 ) ) ;
#147 = SURFACE_STYLE_FILL_AREA ( #238 ) ;
#148 = VERTEX_POINT ( 'NONE', #1202 ) ;
#149 = CARTESIAN_POINT ( 'NONE',  ( 4.497224362268003262, 2.499999999999999556, -0.7500000000000002220 ) ) ;
#150 = CARTESIAN_POINT ( 'NONE',  ( -6.300000000000001599, 3.499999999999999556, -0.7499999999999998890 ) ) ;
#151 = VERTEX_POINT ( 'NONE', #644 ) ;
#152 = CARTESIAN_POINT ( 'NONE',  ( -4.000000000000001776, 4.799999999999999822, -2.350000000000000089 ) ) ;
#153 = ORIENTED_EDGE ( 'NONE', *, *, #1007, .F. ) ;
#154 = CARTESIAN_POINT ( 'NONE',  ( -6.300000000000002487, 0.000000000000000000, -6.250000000000001776 ) ) ;
#155 = ORIENTED_EDGE ( 'NONE', *, *, #438, .F. ) ;
#156 = PRESENTATION_LAYER_ASSIGNMENT (  '', '', ( #696 ) ) ;
#157 = COLOUR_RGB ( '',0.6666666666666666297, 0.6980392156862744724, 0.7686274509803920907 ) ;
#158 = CARTESIAN_POINT ( 'NONE',  ( 6.299999999999997158, 0.000000000000000000, -6.250000000000001776 ) ) ;
#159 = COLOUR_RGB ( '',0.6666666666666666297, 0.6980392156862744724, 0.7686274509803920907 ) ;
#160 = AXIS2_PLACEMENT_3D ( 'NONE', #1078, #1173, #224 ) ;
#161 = FACE_OUTER_BOUND ( 'NONE', #394, .T. ) ;
#162 = CARTESIAN_POINT ( 'NONE',  ( -6.750000000000000888, 2.499999999999999556, -0.7500000000000002220 ) ) ;
#163 = STYLED_ITEM ( 'NONE', ( #302 ), #620 ) ;
#164 = ADVANCED_FACE ( 'NONE', ( #70 ), #653, .F. ) ;
#165 = CARTESIAN_POINT ( 'NONE',  ( -4.497224362268006814, 3.499999999999999556, -0.7500000000000002220 ) ) ;
#166 =( NAMED_UNIT ( * ) SI_UNIT ( $, .STERADIAN. ) SOLID_ANGLE_UNIT ( ) );
#167 = EDGE_LOOP ( 'NONE', ( #980, #466, #332, #832 ) ) ;
#168 = DIRECTION ( 'NONE',  ( 0.000000000000000000, -0.000000000000000000, -1.000000000000000000 ) ) ;
#169 =( NAMED_UNIT ( * ) PLANE_ANGLE_UNIT ( ) SI_UNIT ( $, .RADIAN. ) );
#170 = PRESENTATION_STYLE_ASSIGNMENT (( #648 ) ) ;
#171 = VERTEX_POINT ( 'NONE', #96 ) ;
#172 = FILL_AREA_STYLE_COLOUR ( '', #956 ) ;
#173 = DIRECTION ( 'NONE',  ( -0.000000000000000000, -0.000000000000000000, -1.000000000000000000 ) ) ;
#174 = UNCERTAINTY_MEASURE_WITH_UNIT (LENGTH_MEASURE( 1.000000000000000082E-05 ), #203, 'distance_accuracy_value', 'NONE');
#175 = LINE ( 'NONE', #154, #478 ) ;
#176 = VERTEX_POINT ( 'NONE', #293 ) ;
#177 = SURFACE_SIDE_STYLE ('',( #1025 ) ) ;
#178 = PLANE ( 'NONE',  #503 ) ;
#179 = COLOUR_RGB ( '',0.2980392156862745057, 0.2980392156862745057, 0.2980392156862745057 ) ;
#180 = STYLED_ITEM ( 'NONE', ( #491 ), #365 ) ;
#181 = DIRECTION ( 'NONE',  ( 0.000000000000000000, 0.000000000000000000, 1.000000000000000000 ) ) ;
#182 = EDGE_LOOP ( 'NONE', ( #476, #887, #136, #884 ) ) ;
#183 = EDGE_CURVE ( 'NONE', #998, #1116, #666, .T. ) ;
#184 = EDGE_CURVE ( 'NONE', #657, #1089, #90, .T. ) ;
#185 = FACE_OUTER_BOUND ( 'NONE', #828, .T. ) ;
#186 = CARTESIAN_POINT ( 'NONE',  ( 4.497224362268003262, 2.499999999999999556, -0.7500000000000002220 ) ) ;
#187 = VERTEX_POINT ( 'NONE', #1132 ) ;
#188 = CARTESIAN_POINT ( 'NONE',  ( 6.299999999999998046, 4.500000000000000000, -2.349999999999999645 ) ) ;
#189 = PLANE ( 'NONE',  #636 ) ;
#190 = ORIENTED_EDGE ( 'NONE', *, *, #1048, .T. ) ;
#191 = CARTESIAN_POINT ( 'NONE',  ( -6.300000000000002487, 0.000000000000000000, -5.750000000000001776 ) ) ;
#192 = FACE_OUTER_BOUND ( 'NONE', #124, .T. ) ;
#193 =( GEOMETRIC_REPRESENTATION_CONTEXT ( 3 ) GLOBAL_UNCERTAINTY_ASSIGNED_CONTEXT ( ( #841 ) ) GLOBAL_UNIT_ASSIGNED_CONTEXT ( ( #622, #24, #997 ) ) REPRESENTATION_CONTEXT ( 'NONE', 'WORKASPACE' ) );
#194 = CIRCLE ( 'NONE', #678, 0.5000000000000004441 ) ;
#195 = EDGE_CURVE ( 'NONE', #649, #176, #81, .T. ) ;
#196 = VECTOR ( 'NONE', #1041, 1000.000000000000000 ) ;
#197 = VECTOR ( 'NONE', #524, 1000.000000000000000 ) ;
#198 = UNCERTAINTY_MEASURE_WITH_UNIT (LENGTH_MEASURE( 1.000000000000000082E-05 ), #574, 'distance_accuracy_value', 'NONE');
#199 = DIRECTION ( 'NONE',  ( -1.000000000000000000, 0.000000000000000000, 1.387778780781445676E-16 ) ) ;
#200 = CIRCLE ( 'NONE', #994, 0.5000000000000004441 ) ;
#201 = VERTEX_POINT ( 'NONE', #467 ) ;
#202 = LINE ( 'NONE', #874, #826 ) ;
#203 =( LENGTH_UNIT ( ) NAMED_UNIT ( * ) SI_UNIT ( .MILLI., .METRE. ) );
#204 = CARTESIAN_POINT ( 'NONE',  ( -6.300000000000002487, 4.500000000000000000, -5.750000000000001776 ) ) ;
#205 = CARTESIAN_POINT ( 'NONE',  ( 0.000000000000000000, 2.499999999999999556, 0.000000000000000000 ) ) ;
#206 = ORIENTED_EDGE ( 'NONE', *, *, #1100, .T. ) ;
#207 = FILL_AREA_STYLE ('',( #670 ) ) ;
#208 = SURFACE_STYLE_USAGE ( .BOTH. , #769 ) ;
#209 = ORIENTED_EDGE ( 'NONE', *, *, #1193, .T. ) ;
#210 = CARTESIAN_POINT ( 'NONE',  ( -6.750000000000000888, 4.799999999999999822, -2.350000000000000089 ) ) ;
#211 = ORIENTED_EDGE ( 'NONE', *, *, #1159, .F. ) ;
#212 = DIRECTION ( 'NONE',  ( 1.000000000000000000, 0.000000000000000000, 0.000000000000000000 ) ) ;
#213 = PRODUCT_DEFINITION ( 'UNKNOWN', '', #1076, #686 ) ;
#214 = ADVANCED_FACE ( 'NONE', ( #1233 ), #384, .F. ) ;
#215 = SURFACE_STYLE_USAGE ( .BOTH. , #431 ) ;
#216 = ORIENTED_EDGE ( 'NONE', *, *, #1027, .T. ) ;
#217 = CIRCLE ( 'NONE', #618, 0.5000000000000004441 ) ;
#218 = LINE ( 'NONE', #960, #464 ) ;
#219 =( GEOMETRIC_REPRESENTATION_CONTEXT ( 3 ) GLOBAL_UNCERTAINTY_ASSIGNED_CONTEXT ( ( #41 ) ) GLOBAL_UNIT_ASSIGNED_CONTEXT ( ( #833, #1207, #1223 ) ) REPRESENTATION_CONTEXT ( 'NONE', 'WORKASPACE' ) );
#220 = ORIENTED_EDGE ( 'NONE', *, *, #889, .F. ) ;
#221 = AXIS2_PLACEMENT_3D ( 'NONE', #583, #427, #775 ) ;
#222 = SURFACE_STYLE_USAGE ( .BOTH. , #114 ) ;
#223 = VECTOR ( 'NONE', #1155, 1000.000000000000000 ) ;
#224 = DIRECTION ( 'NONE',  ( 0.000000000000000000, 0.000000000000000000, 1.000000000000000000 ) ) ;
#225 = LINE ( 'NONE', #38, #308 ) ;
#226 = ADVANCED_FACE ( 'NONE', ( #192 ), #870, .F. ) ;
#227 = VERTEX_POINT ( 'NONE', #1157 ) ;
#228 = DIRECTION ( 'NONE',  ( 0.000000000000000000, 1.000000000000000000, 0.000000000000000000 ) ) ;
#229 = ORIENTED_EDGE ( 'NONE', *, *, #798, .F. ) ;
#230 = ORIENTED_EDGE ( 'NONE', *, *, #537, .T. ) ;
#231 = DIRECTION ( 'NONE',  ( -1.000000000000000000, 0.000000000000000000, 0.000000000000000000 ) ) ;
#232 = CARTESIAN_POINT ( 'NONE',  ( -6.300000000000001599, 2.499999999999999556, 2.350000000000000089 ) ) ;
#233 = PRESENTATION_STYLE_ASSIGNMENT (( #708 ) ) ;
#234 = DIRECTION ( 'NONE',  ( -0.000000000000000000, 1.000000000000000000, -0.000000000000000000 ) ) ;
#235 = ORIENTED_EDGE ( 'NONE', *, *, #28, .F. ) ;
#236 = CARTESIAN_POINT ( 'NONE',  ( -5.800000000000000711, 4.500000000000000000, 5.750000000000000000 ) ) ;
#237 = DIRECTION ( 'NONE',  ( 0.000000000000000000, 0.000000000000000000, -1.000000000000000000 ) ) ;
#238 = FILL_AREA_STYLE ('',( #1090 ) ) ;
#239 = ADVANCED_FACE ( 'NONE', ( #581 ), #246, .F. ) ;
#240 = EDGE_CURVE ( 'NONE', #455, #16, #74, .T. ) ;
#241 =( NAMED_UNIT ( * ) SI_UNIT ( $, .STERADIAN. ) SOLID_ANGLE_UNIT ( ) );
#242 = VECTOR ( 'NONE', #263, 1000.000000000000000 ) ;
#243 = STYLED_ITEM ( 'NONE', ( #1105 ), #164 ) ;
#244 =( GEOMETRIC_REPRESENTATION_CONTEXT ( 3 ) GLOBAL_UNCERTAINTY_ASSIGNED_CONTEXT ( ( #971 ) ) GLOBAL_UNIT_ASSIGNED_CONTEXT ( ( #611, #255, #1009 ) ) REPRESENTATION_CONTEXT ( 'NONE', 'WORKASPACE' ) );
#245 = EDGE_LOOP ( 'NONE', ( #1037, #886, #566, #1062 ) ) ;
#246 = PLANE ( 'NONE',  #563 ) ;
#247 = DIRECTION ( 'NONE',  ( -0.000000000000000000, -1.000000000000000000, -0.000000000000000000 ) ) ;
#248 = ORIENTED_EDGE ( 'NONE', *, *, #920, .T. ) ;
#249 = PRESENTATION_STYLE_ASSIGNMENT (( #818 ) ) ;
#250 = DIRECTION ( 'NONE',  ( -0.000000000000000000, 0.000000000000000000, 1.000000000000000000 ) ) ;
#251 = EDGE_CURVE ( 'NONE', #624, #1089, #1188, .T. ) ;
#252 = VERTEX_POINT ( 'NONE', #737 ) ;
#253 = DIRECTION ( 'NONE',  ( -0.000000000000000000, -0.000000000000000000, 1.000000000000000000 ) ) ;
#254 = CARTESIAN_POINT ( 'NONE',  ( 3.999999999999998224, 4.799999999999999822, 2.350000000000000089 ) ) ;
#255 =( NAMED_UNIT ( * ) PLANE_ANGLE_UNIT ( ) SI_UNIT ( $, .RADIAN. ) );
#256 = ORIENTED_EDGE ( 'NONE', *, *, #629, .T. ) ;
#257 = LINE ( 'NONE', #66, #762 ) ;
#258 = CARTESIAN_POINT ( 'NONE',  ( -6.750000000000000888, 2.499999999999999556, 2.350000000000000089 ) ) ;
#259 = VERTEX_POINT ( 'NONE', #726 ) ;
#260 = EDGE_CURVE ( 'NONE', #896, #630, #371, .T. ) ;
#261 = EDGE_CURVE ( 'NONE', #683, #452, #631, .T. ) ;
#262 = LINE ( 'NONE', #158, #1077 ) ;
#263 = DIRECTION ( 'NONE',  ( 0.000000000000000000, 0.000000000000000000, -1.000000000000000000 ) ) ;
#264 = DIRECTION ( 'NONE',  ( 1.000000000000000000, -0.000000000000000000, -0.000000000000000000 ) ) ;
#265 = DIRECTION ( 'NONE',  ( 0.000000000000000000, 0.000000000000000000, 1.000000000000000000 ) ) ;
#266 = EDGE_LOOP ( 'NONE', ( #962, #17, #486, #1057 ) ) ;
#267 = VECTOR ( 'NONE', #755, 1000.000000000000000 ) ;
#268 = DIRECTION ( 'NONE',  ( 0.000000000000000000, -1.000000000000000000, 0.000000000000000000 ) ) ;
#269 = COLOUR_RGB ( '',0.6666666666666666297, 0.6980392156862744724, 0.7686274509803920907 ) ;
#270 = CARTESIAN_POINT ( 'NONE',  ( 0.000000000000000000, 2.499999999999999556, 0.000000000000000000 ) ) ;
#271 = EDGE_CURVE ( 'NONE', #119, #259, #829, .T. ) ;
#272 = VECTOR ( 'NONE', #1148, 1000.000000000000000 ) ;
#273 = EDGE_CURVE ( 'NONE', #452, #319, #262, .T. ) ;
#274 = UNCERTAINTY_MEASURE_WITH_UNIT (LENGTH_MEASURE( 1.000000000000000082E-05 ), #864, 'distance_accuracy_value', 'NONE');
#275 = SURFACE_STYLE_FILL_AREA ( #1124 ) ;
#276 = ORIENTED_EDGE ( 'NONE', *, *, #184, .T. ) ;
#277 = CARTESIAN_POINT ( 'NONE',  ( -4.000000000000001776, 4.500000000000000000, -2.350000000000000089 ) ) ;
#278 =( LENGTH_UNIT ( ) NAMED_UNIT ( * ) SI_UNIT ( .MILLI., .METRE. ) );
#279 = ORIENTED_EDGE ( 'NONE', *, *, #437, .F. ) ;
#280 = ADVANCED_BREP_SHAPE_REPRESENTATION ( 'SRP1245A-220M', ( #79, #921 ), #440 ) ;
#281 =( NAMED_UNIT ( * ) SI_UNIT ( $, .STERADIAN. ) SOLID_ANGLE_UNIT ( ) );
#282 = DIRECTION ( 'NONE',  ( 0.000000000000000000, 0.000000000000000000, 1.000000000000000000 ) ) ;
#283 = CARTESIAN_POINT ( 'NONE',  ( -5.800000000000000711, 4.500000000000000000, 6.249999999999999112 ) ) ;
#284 = ORIENTED_EDGE ( 'NONE', *, *, #646, .F. ) ;
#285 = SURFACE_STYLE_USAGE ( .BOTH. , #935 ) ;
#286 = AXIS2_PLACEMENT_3D ( 'NONE', #842, #931, #265 ) ;
#287 = CARTESIAN_POINT ( 'NONE',  ( -6.750000000000000888, 4.500000000000000000, -2.350000000000000089 ) ) ;
#288 = DIRECTION ( 'NONE',  ( -0.000000000000000000, 4.336808689942017243E-16, 1.000000000000000000 ) ) ;
#289 = VECTOR ( 'NONE', #139, 1000.000000000000000 ) ;
#290 = VECTOR ( 'NONE', #1140, 1000.000000000000000 ) ;
#291 = VERTEX_POINT ( 'NONE', #548 ) ;
#292 = CARTESIAN_POINT ( 'NONE',  ( -4.000000000000001776, 4.500000000000000000, -2.350000000000000089 ) ) ;
#293 = CARTESIAN_POINT ( 'NONE',  ( -6.300000000000001599, 4.500000000000000000, -2.350000000000000089 ) ) ;
#294 = DIRECTION ( 'NONE',  ( 0.000000000000000000, 0.000000000000000000, 1.000000000000000000 ) ) ;
#295 = UNCERTAINTY_MEASURE_WITH_UNIT (LENGTH_MEASURE( 1.000000000000000082E-05 ), #408, 'distance_accuracy_value', 'NONE');
#296 = FACE_OUTER_BOUND ( 'NONE', #362, .T. ) ;
#297 = ORIENTED_EDGE ( 'NONE', *, *, #425, .F. ) ;
#298 = FACE_OUTER_BOUND ( 'NONE', #435, .T. ) ;
#299 = CARTESIAN_POINT ( 'NONE',  ( 4.497224362268003262, 2.499999999999999556, 0.7500000000000002220 ) ) ;
#300 = ADVANCED_FACE ( 'NONE', ( #834 ), #1117, .F. ) ;
#301 = FILL_AREA_STYLE ('',( #671 ) ) ;
#302 = PRESENTATION_STYLE_ASSIGNMENT (( #488 ) ) ;
#303 = CARTESIAN_POINT ( 'NONE',  ( 3.999999999999998224, 4.799999999999999822, -2.350000000000000977 ) ) ;
#304 = PLANE ( 'NONE',  #785 ) ;
#305 = ORIENTED_EDGE ( 'NONE', *, *, #665, .T. ) ;
#306 = CARTESIAN_POINT ( 'NONE',  ( -7.412000306446360185E-16, 4.500000000000000000, -2.349999999999999645 ) ) ;
#307 = PRESENTATION_LAYER_ASSIGNMENT (  '', '', ( #1074 ) ) ;
#308 = VECTOR ( 'NONE', #1181, 1000.000000000000000 ) ;
#309 = EDGE_CURVE ( 'NONE', #778, #788, #695, .T. ) ;
#310 = VECTOR ( 'NONE', #849, 1000.000000000000000 ) ;
#311 = STYLED_ITEM ( 'NONE', ( #482 ), #226 ) ;
#312 = DIRECTION ( 'NONE',  ( 0.000000000000000000, -0.000000000000000000, 1.000000000000000000 ) ) ;
#313 = STYLED_ITEM ( 'NONE', ( #1165 ), #824 ) ;
#314 = ORIENTED_EDGE ( 'NONE', *, *, #704, .T. ) ;
#315 = CARTESIAN_POINT ( 'NONE',  ( -6.300000000000002487, 4.500000000000000000, -6.250000000000001776 ) ) ;
#316 = EDGE_CURVE ( 'NONE', #94, #630, #338, .T. ) ;
#317 = CARTESIAN_POINT ( 'NONE',  ( 6.749999999999997335, 2.499999999999999556, 0.7500000000000002220 ) ) ;
#318 = FACE_OUTER_BOUND ( 'NONE', #812, .T. ) ;
#319 = VERTEX_POINT ( 'NONE', #1239 ) ;
#320 = DIRECTION ( 'NONE',  ( -1.000000000000000000, -0.000000000000000000, -0.000000000000000000 ) ) ;
#321 = VERTEX_POINT ( 'NONE', #1144 ) ;
#322 = DIRECTION ( 'NONE',  ( 1.000000000000000000, 0.000000000000000000, -2.081668171172168267E-16 ) ) ;
#323 = ORIENTED_EDGE ( 'NONE', *, *, #855, .F. ) ;
#324 =( NAMED_UNIT ( * ) SI_UNIT ( $, .STERADIAN. ) SOLID_ANGLE_UNIT ( ) );
#325 = DIRECTION ( 'NONE',  ( 0.000000000000000000, 0.000000000000000000, -1.000000000000000000 ) ) ;
#326 = ORIENTED_EDGE ( 'NONE', *, *, #1027, .F. ) ;
#327 = VECTOR ( 'NONE', #982, 1000.000000000000000 ) ;
#328 = COLOUR_RGB ( '',0.6666666666666666297, 0.6980392156862744724, 0.7686274509803920907 ) ;
#329 = FILL_AREA_STYLE_COLOUR ( '', #269 ) ;
#330 = MECHANICAL_DESIGN_GEOMETRIC_PRESENTATION_REPRESENTATION (  '', ( #163 ), #804 ) ;
#331 = DIRECTION ( 'NONE',  ( -0.000000000000000000, -1.000000000000000000, -0.000000000000000000 ) ) ;
#332 = ORIENTED_EDGE ( 'NONE', *, *, #794, .T. ) ;
#333 = LINE ( 'NONE', #810, #746 ) ;
#334 = FILL_AREA_STYLE ('',( #329 ) ) ;
#335 = CARTESIAN_POINT ( 'NONE',  ( 6.299999999999997158, 4.500000000000000000, -5.750000000000001776 ) ) ;
#336 = PLANE ( 'NONE',  #1016 ) ;
#337 = ORIENTED_EDGE ( 'NONE', *, *, #65, .F. ) ;
#338 = LINE ( 'NONE', #1052, #135 ) ;
#339 = EDGE_CURVE ( 'NONE', #171, #1098, #782, .T. ) ;
#340 = CYLINDRICAL_SURFACE ( 'NONE', #1075, 0.5000000000000004441 ) ;
#341 = ADVANCED_FACE ( 'NONE', ( #606 ), #125, .T. ) ;
#342 = ORIENTED_EDGE ( 'NONE', *, *, #316, .T. ) ;
#343 = CARTESIAN_POINT ( 'NONE',  ( 5.799999999999999822, 4.500000000000000000, 6.249999999999999112 ) ) ;
#344 = SURFACE_SIDE_STYLE ('',( #1101 ) ) ;
#345 = ORIENTED_EDGE ( 'NONE', *, *, #123, .F. ) ;
#346 = DIRECTION ( 'NONE',  ( 0.000000000000000000, -1.000000000000000000, 0.000000000000000000 ) ) ;
#347 = EDGE_LOOP ( 'NONE', ( #155, #49, #1139, #1215 ) ) ;
#348 = EDGE_CURVE ( 'NONE', #40, #649, #800, .T. ) ;
#349 = CARTESIAN_POINT ( 'NONE',  ( 0.000000000000000000, 2.499999999999999556, 0.000000000000000000 ) ) ;
#350 = MECHANICAL_DESIGN_GEOMETRIC_PRESENTATION_REPRESENTATION (  '', ( #372 ), #460 ) ;
#351 = STYLED_ITEM ( 'NONE', ( #89 ), #300 ) ;
#352 = ORIENTED_EDGE ( 'NONE', *, *, #977, .F. ) ;
#353 = AXIS2_PLACEMENT_3D ( 'NONE', #424, #1179, #703 ) ;
#354 = CARTESIAN_POINT ( 'NONE',  ( -6.299999999999999822, 4.500000000000000000, 6.249999999999999112 ) ) ;
#355 = ORIENTED_EDGE ( 'NONE', *, *, #721, .T. ) ;
#356 = EDGE_CURVE ( 'NONE', #878, #1107, #615, .T. ) ;
#357 = LINE ( 'NONE', #1205, #974 ) ;
#358 = CARTESIAN_POINT ( 'NONE',  ( -6.750000000000000888, 2.499999999999999556, -2.350000000000000089 ) ) ;
#359 = ORIENTED_EDGE ( 'NONE', *, *, #183, .T. ) ;
#360 = CARTESIAN_POINT ( 'NONE',  ( 6.749999999999997335, 2.499999999999999556, 2.349999999999996536 ) ) ;
#361 = DIRECTION ( 'NONE',  ( 0.000000000000000000, 1.000000000000000000, 0.000000000000000000 ) ) ;
#362 = EDGE_LOOP ( 'NONE', ( #591, #547, #978, #442 ) ) ;
#363 = DIRECTION ( 'NONE',  ( -0.000000000000000000, -1.000000000000000000, -0.000000000000000000 ) ) ;
#364 = ORIENTED_EDGE ( 'NONE', *, *, #1048, .F. ) ;
#365 = ADVANCED_FACE ( 'NONE', ( #1145 ), #668, .F. ) ;
#366 = CARTESIAN_POINT ( 'NONE',  ( 6.299999999999998046, 2.499999999999999556, 0.7500000000000002220 ) ) ;
#367 = ORIENTED_EDGE ( 'NONE', *, *, #681, .F. ) ;
#368 = DIRECTION ( 'NONE',  ( -0.000000000000000000, 1.000000000000000000, -0.000000000000000000 ) ) ;
#369 = ORIENTED_EDGE ( 'NONE', *, *, #1170, .F. ) ;
#370 = AXIS2_PLACEMENT_3D ( 'NONE', #557, #457, #539 ) ;
#371 = LINE ( 'NONE', #1104, #940 ) ;
#372 = STYLED_ITEM ( 'NONE', ( #472 ), #1194 ) ;
#373 = MECHANICAL_DESIGN_GEOMETRIC_PRESENTATION_REPRESENTATION (  '', ( #180 ), #120 ) ;
#374 =( NAMED_UNIT ( * ) SI_UNIT ( $, .STERADIAN. ) SOLID_ANGLE_UNIT ( ) );
#375 = AXIS2_PLACEMENT_3D ( 'NONE', #1055, #199, #506 ) ;
#376 = UNCERTAINTY_MEASURE_WITH_UNIT (LENGTH_MEASURE( 1.000000000000000082E-05 ), #913, 'distance_accuracy_value', 'NONE');
#377 = ORIENTED_EDGE ( 'NONE', *, *, #704, .F. ) ;
#378 = LINE ( 'NONE', #830, #658 ) ;
#379 = LINE ( 'NONE', #480, #939 ) ;
#380 = ADVANCED_FACE ( 'NONE', ( #702 ), #805, .F. ) ;
#381 = APPLICATION_CONTEXT ( 'automotive_design' ) ;
#382 = DIRECTION ( 'NONE',  ( 1.387778780781445676E-16, -0.000000000000000000, 1.000000000000000000 ) ) ;
#383 = ORIENTED_EDGE ( 'NONE', *, *, #128, .F. ) ;
#384 = PLANE ( 'NONE',  #922 ) ;
#385 = LINE ( 'NONE', #101, #422 ) ;
#386 = ORIENTED_EDGE ( 'NONE', *, *, #1159, .T. ) ;
#387 = COLOUR_RGB ( '',0.6666666666666666297, 0.6980392156862744724, 0.7686274509803920907 ) ;
#388 = VECTOR ( 'NONE', #554, 1000.000000000000000 ) ;
#389 =( LENGTH_UNIT ( ) NAMED_UNIT ( * ) SI_UNIT ( .MILLI., .METRE. ) );
#390 = FILL_AREA_STYLE_COLOUR ( '', #601 ) ;
#391 = VECTOR ( 'NONE', #692, 1000.000000000000000 ) ;
#392 = SURFACE_SIDE_STYLE ('',( #106 ) ) ;
#393 = EDGE_CURVE ( 'NONE', #1116, #187, #1002, .T. ) ;
#394 = EDGE_LOOP ( 'NONE', ( #37, #206, #323, #691 ) ) ;
#395 = LINE ( 'NONE', #306, #1123 ) ;
#396 = DIRECTION ( 'NONE',  ( -1.000000000000000000, 0.000000000000000000, -0.000000000000000000 ) ) ;
#397 = PLANE ( 'NONE',  #801 ) ;
#398 = CARTESIAN_POINT ( 'NONE',  ( -6.750000000000000888, 4.799999999999999822, 2.350000000000000089 ) ) ;
#399 = ORIENTED_EDGE ( 'NONE', *, *, #687, .F. ) ;
#400 = CARTESIAN_POINT ( 'NONE',  ( 5.799999999999999822, 4.500000000000000000, 5.750000000000000000 ) ) ;
#401 = DIRECTION ( 'NONE',  ( -0.000000000000000000, 1.000000000000000000, -0.000000000000000000 ) ) ;
#402 = ORIENTED_EDGE ( 'NONE', *, *, #20, .T. ) ;
#403 = CARTESIAN_POINT ( 'NONE',  ( 6.299999999999998046, 2.499999999999999556, 2.349999999999996536 ) ) ;
#404 = ORIENTED_EDGE ( 'NONE', *, *, #1, .F. ) ;
#405 = VECTOR ( 'NONE', #712, 1000.000000000000000 ) ;
#406 =( NAMED_UNIT ( * ) PLANE_ANGLE_UNIT ( ) SI_UNIT ( $, .RADIAN. ) );
#407 = MECHANICAL_DESIGN_GEOMETRIC_PRESENTATION_REPRESENTATION (  '', ( #1169 ), #923 ) ;
#408 =( LENGTH_UNIT ( ) NAMED_UNIT ( * ) SI_UNIT ( .MILLI., .METRE. ) );
#409 = FACE_OUTER_BOUND ( 'NONE', #416, .T. ) ;
#410 = MECHANICAL_DESIGN_GEOMETRIC_PRESENTATION_REPRESENTATION (  '', ( #745 ), #1156 ) ;
#411 = ORIENTED_EDGE ( 'NONE', *, *, #1137, .F. ) ;
#412 = LINE ( 'NONE', #18, #882 ) ;
#413 = SURFACE_STYLE_USAGE ( .BOTH. , #489 ) ;
#414 = ADVANCED_FACE ( 'NONE', ( #1174 ), #694, .T. ) ;
#415 =( NAMED_UNIT ( * ) SI_UNIT ( $, .STERADIAN. ) SOLID_ANGLE_UNIT ( ) );
#416 = EDGE_LOOP ( 'NONE', ( #496, #652, #593, #1131, #988, #1206, #551, #796, #209, #144, #342, #633 ) ) ;
#417 = PRESENTATION_STYLE_ASSIGNMENT (( #511 ) ) ;
#418 = ORIENTED_EDGE ( 'NONE', *, *, #195, .T. ) ;
#419 = DIRECTION ( 'NONE',  ( 0.000000000000000000, 0.000000000000000000, -1.000000000000000000 ) ) ;
#420 = CYLINDRICAL_SURFACE ( 'NONE', #459, 0.5000000000000004441 ) ;
#421 = ORIENTED_EDGE ( 'NONE', *, *, #348, .T. ) ;
#422 = VECTOR ( 'NONE', #1049, 1000.000000000000000 ) ;
#423 = STYLED_ITEM ( 'NONE', ( #417 ), #850 ) ;
#424 = CARTESIAN_POINT ( 'NONE',  ( 6.749999999999997335, 4.799999999999999822, 2.349999999999996536 ) ) ;
#425 = EDGE_CURVE ( 'NONE', #252, #934, #447, .T. ) ;
#426 = EDGE_CURVE ( 'NONE', #510, #1050, #840, .T. ) ;
#427 = DIRECTION ( 'NONE',  ( -1.000000000000000000, 0.000000000000000000, 0.000000000000000000 ) ) ;
#428 = CARTESIAN_POINT ( 'NONE',  ( -5.800000000000003375, 4.500000000000000000, -5.750000000000001776 ) ) ;
#429 = CARTESIAN_POINT ( 'NONE',  ( 5.799999999999997158, 4.500000000000000000, -6.250000000000001776 ) ) ;
#430 = ORIENTED_EDGE ( 'NONE', *, *, #902, .T. ) ;
#431 = SURFACE_SIDE_STYLE ('',( #138 ) ) ;
#432 = CARTESIAN_POINT ( 'NONE',  ( 6.299999999999997158, 4.500000000000000000, -6.250000000000001776 ) ) ;
#433 = ORIENTED_EDGE ( 'NONE', *, *, #437, .T. ) ;
#434 = FILL_AREA_STYLE_COLOUR ( '', #387 ) ;
#435 = EDGE_LOOP ( 'NONE', ( #873, #1110, #383, #868, #1217, #1237 ) ) ;
#436 = DIRECTION ( 'NONE',  ( 0.000000000000000000, -1.000000000000000000, 0.000000000000000000 ) ) ;
#437 = EDGE_CURVE ( 'NONE', #94, #998, #1017, .T. ) ;
#438 = EDGE_CURVE ( 'NONE', #111, #683, #200, .T. ) ;
#439 = FACE_OUTER_BOUND ( 'NONE', #904, .T. ) ;
#440 =( GEOMETRIC_REPRESENTATION_CONTEXT ( 3 ) GLOBAL_UNCERTAINTY_ASSIGNED_CONTEXT ( ( #198 ) ) GLOBAL_UNIT_ASSIGNED_CONTEXT ( ( #574, #1234, #374 ) ) REPRESENTATION_CONTEXT ( 'NONE', 'WORKASPACE' ) );
#441 = PRESENTATION_LAYER_ASSIGNMENT (  '', '', ( #351 ) ) ;
#442 = ORIENTED_EDGE ( 'NONE', *, *, #251, .T. ) ;
#443 = DIRECTION ( 'NONE',  ( -0.000000000000000000, -1.000000000000000000, -0.000000000000000000 ) ) ;
#444 = CARTESIAN_POINT ( 'NONE',  ( 5.799999999999999822, 4.500000000000000000, 6.249999999999999112 ) ) ;
#445 = SURFACE_SIDE_STYLE ('',( #732 ) ) ;
#446 = ORIENTED_EDGE ( 'NONE', *, *, #82, .F. ) ;
#447 = LINE ( 'NONE', #1114, #1230 ) ;
#448 = EDGE_LOOP ( 'NONE', ( #853, #642, #446, #892 ) ) ;
#449 = CARTESIAN_POINT ( 'NONE',  ( 0.000000000000000000, 0.000000000000000000, 0.000000000000000000 ) ) ;
#450 = DIRECTION ( 'NONE',  ( -1.387778780781445676E-16, -0.000000000000000000, -1.000000000000000000 ) ) ;
#451 = SURFACE_STYLE_USAGE ( .BOTH. , #445 ) ;
#452 = VERTEX_POINT ( 'NONE', #565 ) ;
#453 = DIRECTION ( 'NONE',  ( -0.000000000000000000, -1.000000000000000000, -0.000000000000000000 ) ) ;
#454 = DIRECTION ( 'NONE',  ( 0.000000000000000000, -0.000000000000000000, -1.000000000000000000 ) ) ;
#455 = VERTEX_POINT ( 'NONE', #85 ) ;
#456 = FILL_AREA_STYLE_COLOUR ( '', #1227 ) ;
#457 = DIRECTION ( 'NONE',  ( 0.000000000000000000, 0.000000000000000000, 1.000000000000000000 ) ) ;
#458 = ORIENTED_EDGE ( 'NONE', *, *, #977, .T. ) ;
#459 = AXIS2_PLACEMENT_3D ( 'NONE', #428, #813, #909 ) ;
#460 =( GEOMETRIC_REPRESENTATION_CONTEXT ( 3 ) GLOBAL_UNCERTAINTY_ASSIGNED_CONTEXT ( ( #673 ) ) GLOBAL_UNIT_ASSIGNED_CONTEXT ( ( #389, #169, #281 ) ) REPRESENTATION_CONTEXT ( 'NONE', 'WORKASPACE' ) );
#461 = PRESENTATION_LAYER_ASSIGNMENT (  '', '', ( #311 ) ) ;
#462 = DIRECTION ( 'NONE',  ( 1.000000000000000000, -0.000000000000000000, -0.000000000000000000 ) ) ;
#463 = DIRECTION ( 'NONE',  ( 0.000000000000000000, 1.000000000000000000, 0.000000000000000000 ) ) ;
#464 = VECTOR ( 'NONE', #866, 1000.000000000000000 ) ;
#465 = LINE ( 'NONE', #847, #1032 ) ;
#466 = ORIENTED_EDGE ( 'NONE', *, *, #393, .T. ) ;
#467 = CARTESIAN_POINT ( 'NONE',  ( -5.800000000000000711, 0.000000000000000000, 6.249999999999999112 ) ) ;
#468 = CARTESIAN_POINT ( 'NONE',  ( 6.749999999999997335, 4.799999999999999822, -2.350000000000001865 ) ) ;
#469 = CARTESIAN_POINT ( 'NONE',  ( 6.299999999999998046, 2.499999999999999556, -0.7500000000000002220 ) ) ;
#470 = VERTEX_POINT ( 'NONE', #729 ) ;
#471 = SURFACE_STYLE_USAGE ( .BOTH. , #1040 ) ;
#472 = PRESENTATION_STYLE_ASSIGNMENT (( #1225 ) ) ;
#473 =( NAMED_UNIT ( * ) SI_UNIT ( $, .STERADIAN. ) SOLID_ANGLE_UNIT ( ) );
#474 = EDGE_CURVE ( 'NONE', #1231, #252, #257, .T. ) ;
#475 = CARTESIAN_POINT ( 'NONE',  ( -4.000000000000001776, 4.799999999999999822, -2.350000000000000089 ) ) ;
#476 = ORIENTED_EDGE ( 'NONE', *, *, #28, .T. ) ;
#477 = LINE ( 'NONE', #689, #924 ) ;
#478 = VECTOR ( 'NONE', #749, 1000.000000000000000 ) ;
#479 = CARTESIAN_POINT ( 'NONE',  ( -6.750000000000000888, 4.500000000000000000, 2.350000000000000089 ) ) ;
#480 = CARTESIAN_POINT ( 'NONE',  ( -6.750000000000000888, 2.499999999999999556, -2.350000000000000089 ) ) ;
#481 = VECTOR ( 'NONE', #346, 1000.000000000000000 ) ;
#482 = PRESENTATION_STYLE_ASSIGNMENT (( #208 ) ) ;
#483 = VECTOR ( 'NONE', #1238, 1000.000000000000000 ) ;
#484 = EDGE_CURVE ( 'NONE', #875, #16, #35, .T. ) ;
#485 = LINE ( 'NONE', #469, #538 ) ;
#486 = ORIENTED_EDGE ( 'NONE', *, *, #1006, .F. ) ;
#487 = CARTESIAN_POINT ( 'NONE',  ( 3.999999999999998224, 4.799999999999999822, 2.350000000000000089 ) ) ;
#488 = SURFACE_STYLE_USAGE ( .BOTH. , #14 ) ;
#489 = SURFACE_SIDE_STYLE ('',( #15 ) ) ;
#490 = CARTESIAN_POINT ( 'NONE',  ( -6.300000000000002487, 0.000000000000000000, -6.250000000000001776 ) ) ;
#491 = PRESENTATION_STYLE_ASSIGNMENT (( #100 ) ) ;
#492 = DIRECTION ( 'NONE',  ( 2.081668171172168513E-16, 0.000000000000000000, 1.000000000000000000 ) ) ;
#493 = ORIENTED_EDGE ( 'NONE', *, *, #1039, .F. ) ;
#494 = CYLINDRICAL_SURFACE ( 'NONE', #122, 0.5000000000000004441 ) ;
#495 = CARTESIAN_POINT ( 'NONE',  ( -4.497224362268006814, 2.499999999999999556, -0.7500000000000002220 ) ) ;
#496 = ORIENTED_EDGE ( 'NONE', *, *, #1007, .T. ) ;
#497 = CARTESIAN_POINT ( 'NONE',  ( -6.750000000000000888, 4.799999999999999822, 2.350000000000000089 ) ) ;
#498 = ORIENTED_EDGE ( 'NONE', *, *, #1193, .F. ) ;
#499 = LINE ( 'NONE', #773, #564 ) ;
#500 = EDGE_CURVE ( 'NONE', #227, #949, #817, .T. ) ;
#501 = FILL_AREA_STYLE ('',( #390 ) ) ;
#502 = ORIENTED_EDGE ( 'NONE', *, *, #356, .T. ) ;
#503 = AXIS2_PLACEMENT_3D ( 'NONE', #84, #568, #1219 ) ;
#504 = AXIS2_PLACEMENT_3D ( 'NONE', #1176, #1190, #738 ) ;
#505 = MECHANICAL_DESIGN_GEOMETRIC_PRESENTATION_REPRESENTATION (  '', ( #311 ), #843 ) ;
#506 = DIRECTION ( 'NONE',  ( 1.387778780781445676E-16, 0.000000000000000000, 1.000000000000000000 ) ) ;
#507 = EDGE_LOOP ( 'NONE', ( #523, #709, #345, #577 ) ) ;
#508 = LINE ( 'NONE', #315, #844 ) ;
#509 =( NAMED_UNIT ( * ) PLANE_ANGLE_UNIT ( ) SI_UNIT ( $, .RADIAN. ) );
#510 = VERTEX_POINT ( 'NONE', #27 ) ;
#511 = SURFACE_STYLE_USAGE ( .BOTH. , #142 ) ;
#512 = CARTESIAN_POINT ( 'NONE',  ( 6.749999999999997335, 2.499999999999999556, 2.349999999999996536 ) ) ;
#513 = EDGE_CURVE ( 'NONE', #683, #1005, #333, .T. ) ;
#514 = DIRECTION ( 'NONE',  ( -1.387778780781445676E-16, -0.000000000000000000, -1.000000000000000000 ) ) ;
#515 = SURFACE_STYLE_FILL_AREA ( #613 ) ;
#516 = FACE_OUTER_BOUND ( 'NONE', #448, .T. ) ;
#517 = DIRECTION ( 'NONE',  ( -0.000000000000000000, 1.000000000000000000, -0.000000000000000000 ) ) ;
#518 =( GEOMETRIC_REPRESENTATION_CONTEXT ( 3 ) GLOBAL_UNCERTAINTY_ASSIGNED_CONTEXT ( ( #612 ) ) GLOBAL_UNIT_ASSIGNED_CONTEXT ( ( #690, #509, #1126 ) ) REPRESENTATION_CONTEXT ( 'NONE', 'WORKASPACE' ) );
#519 = PRESENTATION_LAYER_ASSIGNMENT (  '', '', ( #745 ) ) ;
#520 = DIRECTION ( 'NONE',  ( 0.000000000000000000, 0.000000000000000000, -1.000000000000000000 ) ) ;
#521 = PRESENTATION_LAYER_ASSIGNMENT (  '', '', ( #163 ) ) ;
#522 =( LENGTH_UNIT ( ) NAMED_UNIT ( * ) SI_UNIT ( .MILLI., .METRE. ) );
#523 = ORIENTED_EDGE ( 'NONE', *, *, #426, .T. ) ;
#524 = DIRECTION ( 'NONE',  ( -0.000000000000000000, 1.000000000000000000, -0.000000000000000000 ) ) ;
#525 = LINE ( 'NONE', #698, #133 ) ;
#526 = SURFACE_SIDE_STYLE ('',( #147 ) ) ;
#527 = VERTEX_POINT ( 'NONE', #893 ) ;
#528 = UNCERTAINTY_MEASURE_WITH_UNIT (LENGTH_MEASURE( 1.000000000000000082E-05 ), #278, 'distance_accuracy_value', 'NONE');
#529 = DIRECTION ( 'NONE',  ( -2.081668171172168267E-16, 0.000000000000000000, -1.000000000000000000 ) ) ;
#530 = ORIENTED_EDGE ( 'NONE', *, *, #44, .F. ) ;
#531 = DIRECTION ( 'NONE',  ( -1.000000000000000000, 0.000000000000000000, -0.000000000000000000 ) ) ;
#532 = CARTESIAN_POINT ( 'NONE',  ( -5.800000000000000711, 4.500000000000000000, 5.750000000000000000 ) ) ;
#533 = LINE ( 'NONE', #617, #744 ) ;
#534 = FILL_AREA_STYLE ('',( #434 ) ) ;
#535 = ORIENTED_EDGE ( 'NONE', *, *, #273, .F. ) ;
#536 = DIRECTION ( 'NONE',  ( 0.000000000000000000, 0.000000000000000000, -1.000000000000000000 ) ) ;
#537 = EDGE_CURVE ( 'NONE', #838, #527, #1099, .T. ) ;
#538 = VECTOR ( 'NONE', #959, 1000.000000000000000 ) ;
#539 = DIRECTION ( 'NONE',  ( 1.000000000000000000, 0.000000000000000000, -0.000000000000000000 ) ) ;
#540 = AXIS2_PLACEMENT_3D ( 'NONE', #1113, #928, #1014 ) ;
#541 = VECTOR ( 'NONE', #6, 1000.000000000000000 ) ;
#542 = VERTEX_POINT ( 'NONE', #1167 ) ;
#543 = VECTOR ( 'NONE', #529, 1000.000000000000000 ) ;
#544 = DIRECTION ( 'NONE',  ( -1.000000000000000000, 0.000000000000000000, -0.000000000000000000 ) ) ;
#545 = CARTESIAN_POINT ( 'NONE',  ( -4.000000000000001776, 4.500000000000000000, 2.350000000000000089 ) ) ;
#546 = DIRECTION ( 'NONE',  ( 0.000000000000000000, 0.000000000000000000, 1.000000000000000000 ) ) ;
#547 = ORIENTED_EDGE ( 'NONE', *, *, #348, .F. ) ;
#548 = CARTESIAN_POINT ( 'NONE',  ( 6.299999999999998046, 2.499999999999999556, 0.7500000000000002220 ) ) ;
#549 = LINE ( 'NONE', #468, #310 ) ;
#550 = ADVANCED_FACE ( 'NONE', ( #409 ), #1161, .F. ) ;
#551 = ORIENTED_EDGE ( 'NONE', *, *, #920, .F. ) ;
#552 = APPLICATION_PROTOCOL_DEFINITION ( 'draft international standard', 'automotive_design', 1998, #381 ) ;
#553 = FILL_AREA_STYLE ('',( #172 ) ) ;
#554 = DIRECTION ( 'NONE',  ( -1.000000000000000000, 0.000000000000000000, 0.000000000000000000 ) ) ;
#555 = CARTESIAN_POINT ( 'NONE',  ( -4.497224362268006814, 2.499999999999999556, 0.7500000000000002220 ) ) ;
#556 = CARTESIAN_POINT ( 'NONE',  ( 5.799999999999999822, 4.500000000000000000, 5.750000000000000000 ) ) ;
#557 = CARTESIAN_POINT ( 'NONE',  ( -6.300000000000002487, 4.500000000000000000, -6.250000000000001776 ) ) ;
#558 = EDGE_LOOP ( 'NONE', ( #530, #944, #337, #220, #1154, #305, #676, #1092 ) ) ;
#559 = VECTOR ( 'NONE', #517, 1000.000000000000000 ) ;
#560 = PRESENTATION_LAYER_ASSIGNMENT (  '', '', ( #1034 ) ) ;
#561 = ADVANCED_FACE ( 'NONE', ( #1061 ), #304, .F. ) ;
#562 = PRESENTATION_LAYER_ASSIGNMENT (  '', '', ( #1121 ) ) ;
#563 = AXIS2_PLACEMENT_3D ( 'NONE', #145, #536, #531 ) ;
#564 = VECTOR ( 'NONE', #320, 1000.000000000000000 ) ;
#565 = CARTESIAN_POINT ( 'NONE',  ( 6.299999999999998934, 0.000000000000000000, 5.750000000000000000 ) ) ;
#566 = ORIENTED_EDGE ( 'NONE', *, *, #682, .T. ) ;
#567 = EDGE_CURVE ( 'NONE', #949, #1050, #218, .T. ) ;
#568 = DIRECTION ( 'NONE',  ( 3.154042683594196107E-16, -0.000000000000000000, 1.000000000000000000 ) ) ;
#569 =( LENGTH_UNIT ( ) NAMED_UNIT ( * ) SI_UNIT ( .MILLI., .METRE. ) );
#570 = FACE_OUTER_BOUND ( 'NONE', #1150, .T. ) ;
#571 = ORIENTED_EDGE ( 'NONE', *, *, #1208, .T. ) ;
#572 = DIRECTION ( 'NONE',  ( -0.000000000000000000, 1.000000000000000000, -0.000000000000000000 ) ) ;
#573 = DIRECTION ( 'NONE',  ( 0.000000000000000000, -0.000000000000000000, 1.000000000000000000 ) ) ;
#574 =( LENGTH_UNIT ( ) NAMED_UNIT ( * ) SI_UNIT ( .MILLI., .METRE. ) );
#575 = EDGE_CURVE ( 'NONE', #955, #624, #594, .T. ) ;
#576 = CARTESIAN_POINT ( 'NONE',  ( 6.299999999999998046, 4.500000000000000000, 2.349999999999996536 ) ) ;
#577 = ORIENTED_EDGE ( 'NONE', *, *, #930, .F. ) ;
#578 = DIRECTION ( 'NONE',  ( 2.081668171172168513E-16, 0.000000000000000000, 1.000000000000000000 ) ) ;
#579 = VECTOR ( 'NONE', #584, 1000.000000000000000 ) ;
#580 = VECTOR ( 'NONE', #268, 1000.000000000000000 ) ;
#581 = FACE_OUTER_BOUND ( 'NONE', #595, .T. ) ;
#582 = PRESENTATION_LAYER_ASSIGNMENT (  '', '', ( #423 ) ) ;
#583 = CARTESIAN_POINT ( 'NONE',  ( 6.749999999999997335, 4.799999999999999822, -2.350000000000001865 ) ) ;
#584 = DIRECTION ( 'NONE',  ( 1.000000000000000000, 0.000000000000000000, 0.000000000000000000 ) ) ;
#585 = DIRECTION ( 'NONE',  ( 0.000000000000000000, 1.000000000000000000, 0.000000000000000000 ) ) ;
#586 = ORIENTED_EDGE ( 'NONE', *, *, #316, .F. ) ;
#587 = DIRECTION ( 'NONE',  ( 1.000000000000000000, 0.000000000000000000, -3.154042683594196107E-16 ) ) ;
#588 = DIRECTION ( 'NONE',  ( 0.000000000000000000, -0.000000000000000000, 1.000000000000000000 ) ) ;
#589 = LINE ( 'NONE', #210, #391 ) ;
#590 = ADVANCED_FACE ( 'NONE', ( #318 ), #675, .F. ) ;
#591 = ORIENTED_EDGE ( 'NONE', *, *, #108, .T. ) ;
#592 = CARTESIAN_POINT ( 'NONE',  ( 6.299999999999998046, 2.499999999999999556, -2.349999999999999645 ) ) ;
#593 = ORIENTED_EDGE ( 'NONE', *, *, #1039, .T. ) ;
#594 = LINE ( 'NONE', #398, #541 ) ;
#595 = EDGE_LOOP ( 'NONE', ( #248, #276, #1082, #1222, #352, #377 ) ) ;
#596 = CARTESIAN_POINT ( 'NONE',  ( 6.749999999999997335, 4.799999999999999822, 2.349999999999996536 ) ) ;
#597 = COLOUR_RGB ( '',0.6666666666666666297, 0.6980392156862744724, 0.7686274509803920907 ) ;
#598 = FACE_OUTER_BOUND ( 'NONE', #663, .T. ) ;
#599 = EDGE_LOOP ( 'NONE', ( #229, #230, #314, #190 ) ) ;
#600 = AXIS2_PLACEMENT_3D ( 'NONE', #299, #573, #1141 ) ;
#601 = COLOUR_RGB ( '',0.6666666666666666297, 0.6980392156862744724, 0.7686274509803920907 ) ;
#602 = FILL_AREA_STYLE ('',( #1241 ) ) ;
#603 = CIRCLE ( 'NONE', #1214, 0.5000000000000004441 ) ;
#604 = EDGE_LOOP ( 'NONE', ( #9, #1086, #1023, #984 ) ) ;
#605 = CARTESIAN_POINT ( 'NONE',  ( 0.000000000000000000, 4.799999999999999822, 0.000000000000000000 ) ) ;
#606 = FACE_OUTER_BOUND ( 'NONE', #848, .T. ) ;
#607 = SURFACE_STYLE_FILL_AREA ( #602 ) ;
#608 = EDGE_CURVE ( 'NONE', #657, #148, #1064, .T. ) ;
#609 = EDGE_CURVE ( 'NONE', #881, #955, #589, .T. ) ;
#610 = ORIENTED_EDGE ( 'NONE', *, *, #356, .F. ) ;
#611 =( LENGTH_UNIT ( ) NAMED_UNIT ( * ) SI_UNIT ( .MILLI., .METRE. ) );
#612 = UNCERTAINTY_MEASURE_WITH_UNIT (LENGTH_MEASURE( 1.000000000000000082E-05 ), #690, 'distance_accuracy_value', 'NONE');
#613 = FILL_AREA_STYLE ('',( #901 ) ) ;
#614 = ORIENTED_EDGE ( 'NONE', *, *, #798, .T. ) ;
#615 = LINE ( 'NONE', #989, #197 ) ;
#616 = FILL_AREA_STYLE_COLOUR ( '', #179 ) ;
#617 = CARTESIAN_POINT ( 'NONE',  ( -6.750000000000000888, 4.799999999999999822, -2.350000000000000089 ) ) ;
#618 = AXIS2_PLACEMENT_3D ( 'NONE', #655, #1035, #181 ) ;
#619 = PRESENTATION_LAYER_ASSIGNMENT (  '', '', ( #1169 ) ) ;
#620 = ADVANCED_FACE ( 'NONE', ( #872 ), #336, .F. ) ;
#621 = COLOUR_RGB ( '',0.6666666666666666297, 0.6980392156862744724, 0.7686274509803920907 ) ;
#622 =( LENGTH_UNIT ( ) NAMED_UNIT ( * ) SI_UNIT ( .MILLI., .METRE. ) );
#623 = CARTESIAN_POINT ( 'NONE',  ( -4.000000000000001776, 4.799999999999999822, 2.350000000000000089 ) ) ;
#624 = VERTEX_POINT ( 'NONE', #623 ) ;
#625 = LINE ( 'NONE', #432, #937 ) ;
#626 = ORIENTED_EDGE ( 'NONE', *, *, #183, .F. ) ;
#627 =( NAMED_UNIT ( * ) PLANE_ANGLE_UNIT ( ) SI_UNIT ( $, .RADIAN. ) );
#628 = CARTESIAN_POINT ( 'NONE',  ( -6.300000000000001599, 2.499999999999999556, 0.7500000000000002220 ) ) ;
#629 = EDGE_CURVE ( 'NONE', #802, #1005, #115, .T. ) ;
#630 = VERTEX_POINT ( 'NONE', #784 ) ;
#631 = LINE ( 'NONE', #1024, #580 ) ;
#632 = LINE ( 'NONE', #898, #1093 ) ;
#633 = ORIENTED_EDGE ( 'NONE', *, *, #260, .F. ) ;
#634 = DIRECTION ( 'NONE',  ( 0.000000000000000000, 0.000000000000000000, -1.000000000000000000 ) ) ;
#635 = FILL_AREA_STYLE_COLOUR ( '', #159 ) ;
#636 = AXIS2_PLACEMENT_3D ( 'NONE', #475, #231, #777 ) ;
#637 = VECTOR ( 'NONE', #55, 1000.000000000000000 ) ;
#638 = DIRECTION ( 'NONE',  ( 0.000000000000000000, -0.000000000000000000, 1.000000000000000000 ) ) ;
#639 = PLANE ( 'NONE',  #822 ) ;
#640 = VECTOR ( 'NONE', #1111, 1000.000000000000000 ) ;
#641 = VECTOR ( 'NONE', #1084, 1000.000000000000000 ) ;
#642 = ORIENTED_EDGE ( 'NONE', *, *, #880, .F. ) ;
#643 = SURFACE_STYLE_FILL_AREA ( #553 ) ;
#644 = CARTESIAN_POINT ( 'NONE',  ( 6.299999999999998046, 2.499999999999999556, -2.349999999999999645 ) ) ;
#645 = DIRECTION ( 'NONE',  ( 0.000000000000000000, -1.000000000000000000, 4.336808689942017243E-16 ) ) ;
#646 = EDGE_CURVE ( 'NONE', #630, #1116, #499, .T. ) ;
#647 = CARTESIAN_POINT ( 'NONE',  ( 4.497224362268003262, 3.499999999999999556, -0.7500000000000002220 ) ) ;
#648 = SURFACE_STYLE_USAGE ( .BOTH. , #730 ) ;
#649 = VERTEX_POINT ( 'NONE', #292 ) ;
#650 =( NAMED_UNIT ( * ) SI_UNIT ( $, .STERADIAN. ) SOLID_ANGLE_UNIT ( ) );
#651 = UNCERTAINTY_MEASURE_WITH_UNIT (LENGTH_MEASURE( 1.000000000000000082E-05 ), #951, 'distance_accuracy_value', 'NONE');
#652 = ORIENTED_EDGE ( 'NONE', *, *, #754, .F. ) ;
#653 = PLANE ( 'NONE',  #600 ) ;
#654 = DIRECTION ( 'NONE',  ( -1.000000000000000000, -0.000000000000000000, -0.000000000000000000 ) ) ;
#655 = CARTESIAN_POINT ( 'NONE',  ( 5.799999999999999822, 0.000000000000000000, 5.750000000000000000 ) ) ;
#656 = EDGE_CURVE ( 'NONE', #16, #998, #957, .T. ) ;
#657 = VERTEX_POINT ( 'NONE', #104 ) ;
#658 = VECTOR ( 'NONE', #462, 1000.000000000000000 ) ;
#659 = SURFACE_STYLE_FILL_AREA ( #767 ) ;
#660 =( NAMED_UNIT ( * ) PLANE_ANGLE_UNIT ( ) SI_UNIT ( $, .RADIAN. ) );
#661 = VECTOR ( 'NONE', #664, 1000.000000000000000 ) ;
#662 = DIRECTION ( 'NONE',  ( 0.000000000000000000, 1.000000000000000000, 0.000000000000000000 ) ) ;
#663 = EDGE_LOOP ( 'NONE', ( #903, #610, #73, #493 ) ) ;
#664 = DIRECTION ( 'NONE',  ( -0.000000000000000000, -0.000000000000000000, -1.000000000000000000 ) ) ;
#665 = EDGE_CURVE ( 'NONE', #259, #26, #1058, .T. ) ;
#666 = LINE ( 'NONE', #854, #759 ) ;
#667 = CARTESIAN_POINT ( 'NONE',  ( 3.999999999999998224, 4.799999999999999822, -2.350000000000000977 ) ) ;
#668 = PLANE ( 'NONE',  #825 ) ;
#669 = ORIENTED_EDGE ( 'NONE', *, *, #484, .T. ) ;
#670 = FILL_AREA_STYLE_COLOUR ( '', #680 ) ;
#671 = FILL_AREA_STYLE_COLOUR ( '', #1189 ) ;
#672 = DIRECTION ( 'NONE',  ( 0.000000000000000000, 0.000000000000000000, -1.000000000000000000 ) ) ;
#673 = UNCERTAINTY_MEASURE_WITH_UNIT (LENGTH_MEASURE( 1.000000000000000082E-05 ), #389, 'distance_accuracy_value', 'NONE');
#674 = LINE ( 'NONE', #852, #98 ) ;
#675 = PLANE ( 'NONE',  #375 ) ;
#676 = ORIENTED_EDGE ( 'NONE', *, *, #986, .F. ) ;
#677 = DIRECTION ( 'NONE',  ( -1.000000000000000000, -0.000000000000000000, -0.000000000000000000 ) ) ;
#678 = AXIS2_PLACEMENT_3D ( 'NONE', #532, #716, #25 ) ;
#679 = FILL_AREA_STYLE ('',( #763 ) ) ;
#680 = COLOUR_RGB ( '',0.6666666666666666297, 0.6980392156862744724, 0.7686274509803920907 ) ;
#681 = EDGE_CURVE ( 'NONE', #788, #148, #95, .T. ) ;
#682 = EDGE_CURVE ( 'NONE', #227, #151, #412, .T. ) ;
#683 = VERTEX_POINT ( 'NONE', #12 ) ;
#684 = FACE_OUTER_BOUND ( 'NONE', #347, .T. ) ;
#685 = SURFACE_STYLE_FILL_AREA ( #679 ) ;
#686 = PRODUCT_DEFINITION_CONTEXT ( 'detailed design', #381, 'design' ) ;
#687 = EDGE_CURVE ( 'NONE', #1098, #1107, #1051, .T. ) ;
#688 = ORIENTED_EDGE ( 'NONE', *, *, #240, .F. ) ;
#689 = CARTESIAN_POINT ( 'NONE',  ( 6.749999999999997335, 4.799999999999999822, -2.350000000000001865 ) ) ;
#690 =( LENGTH_UNIT ( ) NAMED_UNIT ( * ) SI_UNIT ( .MILLI., .METRE. ) );
#691 = ORIENTED_EDGE ( 'NONE', *, *, #1137, .T. ) ;
#692 = DIRECTION ( 'NONE',  ( 0.000000000000000000, 0.000000000000000000, 1.000000000000000000 ) ) ;
#693 = EDGE_LOOP ( 'NONE', ( #1079, #216, #734, #1147 ) ) ;
#694 = PLANE ( 'NONE',  #1097 ) ;
#695 = LINE ( 'NONE', #490, #1213 ) ;
#696 = STYLED_ITEM ( 'NONE', ( #764 ), #961 ) ;
#697 = PRESENTATION_LAYER_ASSIGNMENT (  '', '', ( #243 ) ) ;
#698 = CARTESIAN_POINT ( 'NONE',  ( 6.299999999999998046, 2.499999999999999556, 2.349999999999996536 ) ) ;
#699 = AXIS2_PLACEMENT_3D ( 'NONE', #1142, #463, #294 ) ;
#700 = VECTOR ( 'NONE', #654, 1000.000000000000000 ) ;
#701 = DIRECTION ( 'NONE',  ( -2.081668171172168267E-16, 0.000000000000000000, -1.000000000000000000 ) ) ;
#702 = FACE_OUTER_BOUND ( 'NONE', #245, .T. ) ;
#703 = DIRECTION ( 'NONE',  ( -1.000000000000000000, 0.000000000000000000, 1.261617073437678443E-15 ) ) ;
#704 = EDGE_CURVE ( 'NONE', #527, #80, #1162, .T. ) ;
#705 = CARTESIAN_POINT ( 'NONE',  ( 5.799999999999997158, 4.500000000000000000, -5.750000000000001776 ) ) ;
#706 = ORIENTED_EDGE ( 'NONE', *, *, #969, .F. ) ;
#707 = LINE ( 'NONE', #204, #29 ) ;
#708 = SURFACE_STYLE_USAGE ( .BOTH. , #344 ) ;
#709 = ORIENTED_EDGE ( 'NONE', *, *, #44, .T. ) ;
#710 = DIRECTION ( 'NONE',  ( 0.000000000000000000, -1.000000000000000000, 0.000000000000000000 ) ) ;
#711 = EDGE_LOOP ( 'NONE', ( #857, #1200, #326, #925 ) ) ;
#712 = DIRECTION ( 'NONE',  ( 1.000000000000000000, -0.000000000000000000, -0.000000000000000000 ) ) ;
#713 = DIRECTION ( 'NONE',  ( 0.000000000000000000, -0.000000000000000000, 1.000000000000000000 ) ) ;
#714 = CARTESIAN_POINT ( 'NONE',  ( -6.299999999999999822, 4.500000000000000000, 6.249999999999999112 ) ) ;
#715 = ORIENTED_EDGE ( 'NONE', *, *, #195, .F. ) ;
#716 = DIRECTION ( 'NONE',  ( 0.000000000000000000, 1.000000000000000000, 0.000000000000000000 ) ) ;
#717 = CARTESIAN_POINT ( 'NONE',  ( -5.800000000000003375, 4.500000000000000000, -6.250000000000001776 ) ) ;
#718 =( GEOMETRIC_REPRESENTATION_CONTEXT ( 3 ) GLOBAL_UNCERTAINTY_ASSIGNED_CONTEXT ( ( #528 ) ) GLOBAL_UNIT_ASSIGNED_CONTEXT ( ( #278, #660, #650 ) ) REPRESENTATION_CONTEXT ( 'NONE', 'WORKASPACE' ) );
#719 = CLOSED_SHELL ( 'NONE', ( #380, #143, #590, #1013, #550, #919, #107, #985, #45, #22, #774, #341, #929, #620, #239, #910, #961, #414, #1194, #365, #824, #300, #888, #561, #1182, #850, #214, #226, #1109, #164 ) ) ;
#720 = ORIENTED_EDGE ( 'NONE', *, *, #793, .T. ) ;
#721 = EDGE_CURVE ( 'NONE', #151, #731, #879, .T. ) ;
#722 = DIRECTION ( 'NONE',  ( 1.000000000000000000, -0.000000000000000000, -0.000000000000000000 ) ) ;
#723 = AXIS2_PLACEMENT_3D ( 'NONE', #236, #891, #419 ) ;
#724 = MECHANICAL_DESIGN_GEOMETRIC_PRESENTATION_REPRESENTATION (  '', ( #313 ), #1080 ) ;
#725 = ORIENTED_EDGE ( 'NONE', *, *, #952, .F. ) ;
#726 = CARTESIAN_POINT ( 'NONE',  ( 6.749999999999997335, 4.799999999999999822, 2.349999999999996536 ) ) ;
#727 = CARTESIAN_POINT ( 'NONE',  ( 5.799999999999997158, 0.000000000000000000, -6.250000000000001776 ) ) ;
#728 = LINE ( 'NONE', #821, #405 ) ;
#729 = CARTESIAN_POINT ( 'NONE',  ( 6.299999999999998046, 3.499999999999999556, 0.7500000000000002220 ) ) ;
#730 = SURFACE_SIDE_STYLE ('',( #275 ) ) ;
#731 = VERTEX_POINT ( 'NONE', #188 ) ;
#732 = SURFACE_STYLE_FILL_AREA ( #1119 ) ;
#733 = FACE_OUTER_BOUND ( 'NONE', #167, .T. ) ;
#734 = ORIENTED_EDGE ( 'NONE', *, *, #271, .T. ) ;
#735 = DIRECTION ( 'NONE',  ( 0.000000000000000000, 0.000000000000000000, 1.000000000000000000 ) ) ;
#736 = EDGE_CURVE ( 'NONE', #119, #934, #950, .T. ) ;
#737 = CARTESIAN_POINT ( 'NONE',  ( 3.999999999999998224, 4.500000000000000000, -2.350000000000000977 ) ) ;
#738 = DIRECTION ( 'NONE',  ( 0.000000000000000000, 0.000000000000000000, 1.000000000000000000 ) ) ;
#739 = PLANE ( 'NONE',  #1171 ) ;
#740 = VERTEX_POINT ( 'NONE', #121 ) ;
#741 = MECHANICAL_DESIGN_GEOMETRIC_PRESENTATION_REPRESENTATION (  '', ( #895 ), #1187 ) ;
#742 = DIRECTION ( 'NONE',  ( 0.000000000000000000, 1.000000000000000000, 0.000000000000000000 ) ) ;
#743 = FILL_AREA_STYLE_COLOUR ( '', #597 ) ;
#744 = VECTOR ( 'NONE', #64, 1000.000000000000000 ) ;
#745 = STYLED_ITEM ( 'NONE', ( #233 ), #414 ) ;
#746 = VECTOR ( 'NONE', #514, 1000.000000000000000 ) ;
#747 = ORIENTED_EDGE ( 'NONE', *, *, #609, .F. ) ;
#748 = DIRECTION ( 'NONE',  ( -0.000000000000000000, 1.000000000000000000, -0.000000000000000000 ) ) ;
#749 = DIRECTION ( 'NONE',  ( -1.000000000000000000, -0.000000000000000000, -0.000000000000000000 ) ) ;
#750 = EDGE_LOOP ( 'NONE', ( #614, #1125, #68, #498 ) ) ;
#751 = CARTESIAN_POINT ( 'NONE',  ( 3.999999999999998224, 4.500000000000000000, 2.350000000000000089 ) ) ;
#752 = ORIENTED_EDGE ( 'NONE', *, *, #930, .T. ) ;
#753 = FILL_AREA_STYLE_COLOUR ( '', #157 ) ;
#754 = EDGE_CURVE ( 'NONE', #321, #176, #508, .T. ) ;
#755 = DIRECTION ( 'NONE',  ( 1.000000000000000000, -0.000000000000000000, -0.000000000000000000 ) ) ;
#756 = VECTOR ( 'NONE', #761, 1000.000000000000000 ) ;
#757 = EDGE_CURVE ( 'NONE', #259, #109, #477, .T. ) ;
#758 = ORIENTED_EDGE ( 'NONE', *, *, #1209, .F. ) ;
#759 = VECTOR ( 'NONE', #1046, 1000.000000000000000 ) ;
#760 = DIRECTION ( 'NONE',  ( -0.000000000000000000, -1.000000000000000000, -0.000000000000000000 ) ) ;
#761 = DIRECTION ( 'NONE',  ( -1.000000000000000000, -0.000000000000000000, -0.000000000000000000 ) ) ;
#762 = VECTOR ( 'NONE', #453, 1000.000000000000000 ) ;
#763 = FILL_AREA_STYLE_COLOUR ( '', #78 ) ;
#764 = PRESENTATION_STYLE_ASSIGNMENT (( #865 ) ) ;
#765 = ORIENTED_EDGE ( 'NONE', *, *, #855, .T. ) ;
#766 = CARTESIAN_POINT ( 'NONE',  ( -4.497224362268006814, 2.499999999999999556, 0.7500000000000002220 ) ) ;
#767 = FILL_AREA_STYLE ('',( #753 ) ) ;
#768 = FILL_AREA_STYLE ('',( #1026 ) ) ;
#769 = SURFACE_SIDE_STYLE ('',( #685 ) ) ;
#770 = CARTESIAN_POINT ( 'NONE',  ( -6.750000000000000888, 3.499999999999999556, -0.7500000000000002220 ) ) ;
#771 = DIRECTION ( 'NONE',  ( 0.000000000000000000, -0.000000000000000000, 1.000000000000000000 ) ) ;
#772 = ORIENTED_EDGE ( 'NONE', *, *, #1221, .T. ) ;
#773 = CARTESIAN_POINT ( 'NONE',  ( -4.497224362268006814, 2.499999999999999556, -0.7500000000000002220 ) ) ;
#774 = ADVANCED_FACE ( 'NONE', ( #684 ), #494, .T. ) ;
#775 = DIRECTION ( 'NONE',  ( 0.000000000000000000, 0.000000000000000000, 1.000000000000000000 ) ) ;
#776 = FILL_AREA_STYLE_COLOUR ( '', #328 ) ;
#777 = DIRECTION ( 'NONE',  ( 0.000000000000000000, 0.000000000000000000, 1.000000000000000000 ) ) ;
#778 = VERTEX_POINT ( 'NONE', #191 ) ;
#779 = CARTESIAN_POINT ( 'NONE',  ( -5.800000000000003375, 0.000000000000000000, -5.750000000000001776 ) ) ;
#780 = VECTOR ( 'NONE', #401, 1000.000000000000000 ) ;
#781 = AXIS2_PLACEMENT_3D ( 'NONE', #270, #436, #168 ) ;
#782 = CIRCLE ( 'NONE', #160, 0.5000000000000004441 ) ;
#783 = ORIENTED_EDGE ( 'NONE', *, *, #814, .T. ) ;
#784 = CARTESIAN_POINT ( 'NONE',  ( -6.300000000000001599, 2.499999999999999556, -0.7500000000000002220 ) ) ;
#785 = AXIS2_PLACEMENT_3D ( 'NONE', #205, #585, #771 ) ;
#786 = FILL_AREA_STYLE ('',( #776 ) ) ;
#787 = CARTESIAN_POINT ( 'NONE',  ( 5.799999999999997158, 4.500000000000000000, -6.250000000000001776 ) ) ;
#788 = VERTEX_POINT ( 'NONE', #1232 ) ;
#789 = DIRECTION ( 'NONE',  ( -0.000000000000000000, -1.000000000000000000, -0.000000000000000000 ) ) ;
#790 =( LENGTH_UNIT ( ) NAMED_UNIT ( * ) SI_UNIT ( .MILLI., .METRE. ) );
#791 = LINE ( 'NONE', #1088, #1056 ) ;
#792 = ORIENTED_EDGE ( 'NONE', *, *, #946, .T. ) ;
#793 = EDGE_CURVE ( 'NONE', #252, #731, #395, .T. ) ;
#794 = EDGE_CURVE ( 'NONE', #187, #896, #202, .T. ) ;
#795 = LINE ( 'NONE', #150, #543 ) ;
#796 = ORIENTED_EDGE ( 'NONE', *, *, #537, .F. ) ;
#797 = PRODUCT_DEFINITION_SHAPE ( 'NONE', 'NONE',  #213 ) ;
#798 = EDGE_CURVE ( 'NONE', #838, #455, #110, .T. ) ;
#799 = FACE_OUTER_BOUND ( 'NONE', #146, .T. ) ;
#800 = LINE ( 'NONE', #137, #1122 ) ;
#801 = AXIS2_PLACEMENT_3D ( 'NONE', #93, #662, #588 ) ;
#802 = VERTEX_POINT ( 'NONE', #403 ) ;
#803 = VECTOR ( 'NONE', #890, 1000.000000000000000 ) ;
#804 =( GEOMETRIC_REPRESENTATION_CONTEXT ( 3 ) GLOBAL_UNCERTAINTY_ASSIGNED_CONTEXT ( ( #1022 ) ) GLOBAL_UNIT_ASSIGNED_CONTEXT ( ( #790, #406, #415 ) ) REPRESENTATION_CONTEXT ( 'NONE', 'WORKASPACE' ) );
#805 = PLANE ( 'NONE',  #976 ) ;
#806 = CARTESIAN_POINT ( 'NONE',  ( -4.497224362268006814, 3.499999999999999556, -0.7500000000000002220 ) ) ;
#807 = DIRECTION ( 'NONE',  ( -0.000000000000000000, -0.000000000000000000, 1.000000000000000000 ) ) ;
#808 = ORIENTED_EDGE ( 'NONE', *, *, #608, .T. ) ;
#809 = FACE_OUTER_BOUND ( 'NONE', #750, .T. ) ;
#810 = CARTESIAN_POINT ( 'NONE',  ( 6.299999999999997158, 4.500000000000000000, -6.250000000000001776 ) ) ;
#811 =( LENGTH_UNIT ( ) NAMED_UNIT ( * ) SI_UNIT ( .MILLI., .METRE. ) );
#812 = EDGE_LOOP ( 'NONE', ( #256, #87, #3, #1186, #908, #103, #58, #130, #906, #752, #1164, #235 ) ) ;
#813 = DIRECTION ( 'NONE',  ( 0.000000000000000000, -1.000000000000000000, 0.000000000000000000 ) ) ;
#814 = EDGE_CURVE ( 'NONE', #778, #878, #603, .T. ) ;
#815 = LINE ( 'NONE', #343, #559 ) ;
#816 = ORIENTED_EDGE ( 'NONE', *, *, #1047, .T. ) ;
#817 = LINE ( 'NONE', #149, #900 ) ;
#818 = SURFACE_STYLE_USAGE ( .BOTH. , #36 ) ;
#819 = ORIENTED_EDGE ( 'NONE', *, *, #474, .F. ) ;
#820 = SURFACE_STYLE_USAGE ( .BOTH. , #177 ) ;
#821 = CARTESIAN_POINT ( 'NONE',  ( 6.749999999999997335, 2.499999999999999556, -2.349999999999999645 ) ) ;
#822 = AXIS2_PLACEMENT_3D ( 'NONE', #72, #827, #454 ) ;
#823 = CIRCLE ( 'NONE', #699, 0.5000000000000004441 ) ;
#824 = ADVANCED_FACE ( 'NONE', ( #298 ), #885, .F. ) ;
#825 = AXIS2_PLACEMENT_3D ( 'NONE', #1184, #894, #520 ) ;
#826 = VECTOR ( 'NONE', #212, 1000.000000000000000 ) ;
#827 = DIRECTION ( 'NONE',  ( 0.000000000000000000, -1.000000000000000000, 0.000000000000000000 ) ) ;
#828 = EDGE_LOOP ( 'NONE', ( #19, #995, #355, #43, #819, #758 ) ) ;
#829 = LINE ( 'NONE', #52, #640 ) ;
#830 = CARTESIAN_POINT ( 'NONE',  ( 4.497224362268003262, 3.499999999999999556, 0.7500000000000002220 ) ) ;
#831 = LINE ( 'NONE', #1198, #289 ) ;
#832 = ORIENTED_EDGE ( 'NONE', *, *, #260, .T. ) ;
#833 =( LENGTH_UNIT ( ) NAMED_UNIT ( * ) SI_UNIT ( .MILLI., .METRE. ) );
#834 = FACE_OUTER_BOUND ( 'NONE', #558, .T. ) ;
#835 = LINE ( 'NONE', #366, #481 ) ;
#836 = ORIENTED_EDGE ( 'NONE', *, *, #438, .T. ) ;
#837 = PLANE ( 'NONE',  #370 ) ;
#838 = VERTEX_POINT ( 'NONE', #628 ) ;
#839 = CARTESIAN_POINT ( 'NONE',  ( -6.300000000000001599, 3.499999999999999556, -0.7500000000000002220 ) ) ;
#840 = LINE ( 'NONE', #647, #1059 ) ;
#841 = UNCERTAINTY_MEASURE_WITH_UNIT (LENGTH_MEASURE( 1.000000000000000082E-05 ), #622, 'distance_accuracy_value', 'NONE');
#842 = CARTESIAN_POINT ( 'NONE',  ( 0.000000000000000000, 4.799999999999999822, 0.000000000000000000 ) ) ;
#843 =( GEOMETRIC_REPRESENTATION_CONTEXT ( 3 ) GLOBAL_UNCERTAINTY_ASSIGNED_CONTEXT ( ( #274 ) ) GLOBAL_UNIT_ASSIGNED_CONTEXT ( ( #864, #970, #105 ) ) REPRESENTATION_CONTEXT ( 'NONE', 'WORKASPACE' ) );
#844 = VECTOR ( 'NONE', #578, 1000.000000000000000 ) ;
#845 = EDGE_LOOP ( 'NONE', ( #297, #720, #967, #1103, #1010, #772, #116, #715, #1066, #113, #808, #402, #765, #836, #1029, #404 ) ) ;
#846 = SURFACE_STYLE_FILL_AREA ( #768 ) ;
#847 = CARTESIAN_POINT ( 'NONE',  ( 6.299999999999998046, 3.499999999999999556, 0.7500000000000000000 ) ) ;
#848 = EDGE_LOOP ( 'NONE', ( #1072, #367, #211, #411 ) ) ;
#849 = DIRECTION ( 'NONE',  ( -1.000000000000000000, 0.000000000000000000, 3.154042683594196107E-16 ) ) ;
#850 = ADVANCED_FACE ( 'NONE', ( #799 ), #1102, .F. ) ;
#851 = UNCERTAINTY_MEASURE_WITH_UNIT (LENGTH_MEASURE( 1.000000000000000082E-05 ), #1143, 'distance_accuracy_value', 'NONE');
#852 = CARTESIAN_POINT ( 'NONE',  ( -6.750000000000000888, 2.499999999999999556, 2.350000000000000089 ) ) ;
#853 = ORIENTED_EDGE ( 'NONE', *, *, #339, .F. ) ;
#854 = CARTESIAN_POINT ( 'NONE',  ( -6.750000000000000888, 2.499999999999999556, -0.7500000000000002220 ) ) ;
#855 = EDGE_CURVE ( 'NONE', #932, #111, #1003, .T. ) ;
#856 = LINE ( 'NONE', #86, #579 ) ;
#857 = ORIENTED_EDGE ( 'NONE', *, *, #425, .T. ) ;
#858 = PRESENTATION_LAYER_ASSIGNMENT (  '', '', ( #1134 ) ) ;
#859 = STYLED_ITEM ( 'NONE', ( #1133 ), #239 ) ;
#860 = CARTESIAN_POINT ( 'NONE',  ( -6.750000000000000888, 3.499999999999999556, -0.7500000000000002220 ) ) ;
#861 = VECTOR ( 'NONE', #677, 1000.000000000000000 ) ;
#862 =( NAMED_UNIT ( * ) PLANE_ANGLE_UNIT ( ) SI_UNIT ( $, .RADIAN. ) );
#863 = DIRECTION ( 'NONE',  ( -0.000000000000000000, 1.000000000000000000, -0.000000000000000000 ) ) ;
#864 =( LENGTH_UNIT ( ) NAMED_UNIT ( * ) SI_UNIT ( .MILLI., .METRE. ) );
#865 = SURFACE_STYLE_USAGE ( .BOTH. , #392 ) ;
#866 = DIRECTION ( 'NONE',  ( 0.000000000000000000, 1.000000000000000000, 0.000000000000000000 ) ) ;
#867 = EDGE_CURVE ( 'NONE', #875, #94, #795, .T. ) ;
#868 = ORIENTED_EDGE ( 'NONE', *, *, #665, .F. ) ;
#869 = CARTESIAN_POINT ( 'NONE',  ( -6.299999999999999822, 4.500000000000000000, 5.750000000000000000 ) ) ;
#870 = PLANE ( 'NONE',  #11 ) ;
#871 = DIRECTION ( 'NONE',  ( 2.081668171172168513E-16, 0.000000000000000000, 1.000000000000000000 ) ) ;
#872 = FACE_OUTER_BOUND ( 'NONE', #1019, .T. ) ;
#873 = ORIENTED_EDGE ( 'NONE', *, *, #1, .T. ) ;
#874 = CARTESIAN_POINT ( 'NONE',  ( -6.750000000000000888, 2.499999999999999556, -2.350000000000000089 ) ) ;
#875 = VERTEX_POINT ( 'NONE', #907 ) ;
#876 =( NAMED_UNIT ( * ) PLANE_ANGLE_UNIT ( ) SI_UNIT ( $, .RADIAN. ) );
#877 = PLANE ( 'NONE',  #954 ) ;
#878 = VERTEX_POINT ( 'NONE', #1175 ) ;
#879 = LINE ( 'NONE', #592, #483 ) ;
#880 = EDGE_CURVE ( 'NONE', #319, #171, #1185, .T. ) ;
#881 = VERTEX_POINT ( 'NONE', #129 ) ;
#882 = VECTOR ( 'NONE', #973, 1000.000000000000000 ) ;
#883 = CARTESIAN_POINT ( 'NONE',  ( -6.300000000000002487, 4.500000000000000000, -6.250000000000001776 ) ) ;
#884 = ORIENTED_EDGE ( 'NONE', *, *, #128, .T. ) ;
#885 = PLANE ( 'NONE',  #353 ) ;
#886 = ORIENTED_EDGE ( 'NONE', *, *, #500, .F. ) ;
#887 = ORIENTED_EDGE ( 'NONE', *, *, #1006, .T. ) ;
#888 = ADVANCED_FACE ( 'NONE', ( #1085 ), #42, .T. ) ;
#889 = EDGE_CURVE ( 'NONE', #109, #740, #67, .T. ) ;
#890 = DIRECTION ( 'NONE',  ( 0.000000000000000000, 0.000000000000000000, -1.000000000000000000 ) ) ;
#891 = DIRECTION ( 'NONE',  ( 0.000000000000000000, -1.000000000000000000, 0.000000000000000000 ) ) ;
#892 = ORIENTED_EDGE ( 'NONE', *, *, #1047, .F. ) ;
#893 = CARTESIAN_POINT ( 'NONE',  ( -6.300000000000001599, 2.499999999999999556, 2.350000000000000089 ) ) ;
#894 = DIRECTION ( 'NONE',  ( 1.000000000000000000, 0.000000000000000000, 0.000000000000000000 ) ) ;
#895 = STYLED_ITEM ( 'NONE', ( #249 ), #888 ) ;
#896 = VERTEX_POINT ( 'NONE', #1018 ) ;
#897 = PRESENTATION_LAYER_ASSIGNMENT (  '', '', ( #975 ) ) ;
#898 = CARTESIAN_POINT ( 'NONE',  ( 6.749999999999997335, 2.499999999999999556, 0.7500000000000002220 ) ) ;
#899 = VECTOR ( 'NONE', #62, 1000.000000000000000 ) ;
#900 = VECTOR ( 'NONE', #722, 1000.000000000000000 ) ;
#901 = FILL_AREA_STYLE_COLOUR ( '', #958 ) ;
#902 = EDGE_CURVE ( 'NONE', #127, #878, #175, .T. ) ;
#903 = ORIENTED_EDGE ( 'NONE', *, *, #1221, .F. ) ;
#904 = EDGE_LOOP ( 'NONE', ( #430, #502, #399, #816 ) ) ;
#905 = CARTESIAN_POINT ( 'NONE',  ( 6.749999999999997335, 3.499999999999999556, -0.7500000000000002220 ) ) ;
#906 = ORIENTED_EDGE ( 'NONE', *, *, #952, .T. ) ;
#907 = CARTESIAN_POINT ( 'NONE',  ( -6.300000000000000711, 3.499999999999999556, 0.7499999999999997780 ) ) ;
#908 = ORIENTED_EDGE ( 'NONE', *, *, #880, .T. ) ;
#909 = DIRECTION ( 'NONE',  ( 0.000000000000000000, 0.000000000000000000, -1.000000000000000000 ) ) ;
#910 = ADVANCED_FACE ( 'NONE', ( #733 ), #639, .T. ) ;
#911 = SURFACE_STYLE_USAGE ( .BOTH. , #526 ) ;
#912 = UNCERTAINTY_MEASURE_WITH_UNIT (LENGTH_MEASURE( 1.000000000000000082E-05 ), #1108, 'distance_accuracy_value', 'NONE');
#913 =( LENGTH_UNIT ( ) NAMED_UNIT ( * ) SI_UNIT ( .MILLI., .METRE. ) );
#914 = ORIENTED_EDGE ( 'NONE', *, *, #82, .T. ) ;
#915 =( NAMED_UNIT ( * ) PLANE_ANGLE_UNIT ( ) SI_UNIT ( $, .RADIAN. ) );
#916 = PLANE ( 'NONE',  #30 ) ;
#917 = VECTOR ( 'NONE', #234, 1000.000000000000000 ) ;
#918 = VECTOR ( 'NONE', #173, 1000.000000000000000 ) ;
#919 = ADVANCED_FACE ( 'NONE', ( #439 ), #837, .F. ) ;
#920 = EDGE_CURVE ( 'NONE', #527, #657, #357, .T. ) ;
#921 = AXIS2_PLACEMENT_3D ( 'NONE', #449, #735, #926 ) ;
#922 = AXIS2_PLACEMENT_3D ( 'NONE', #495, #672, #396 ) ;
#923 =( GEOMETRIC_REPRESENTATION_CONTEXT ( 3 ) GLOBAL_UNCERTAINTY_ASSIGNED_CONTEXT ( ( #174 ) ) GLOBAL_UNIT_ASSIGNED_CONTEXT ( ( #203, #97, #473 ) ) REPRESENTATION_CONTEXT ( 'NONE', 'WORKASPACE' ) );
#924 = VECTOR ( 'NONE', #1067, 1000.000000000000000 ) ;
#925 = ORIENTED_EDGE ( 'NONE', *, *, #474, .T. ) ;
#926 = DIRECTION ( 'NONE',  ( 1.000000000000000000, 0.000000000000000000, 0.000000000000000000 ) ) ;
#927 = CARTESIAN_POINT ( 'NONE',  ( -4.000000000000001776, 4.799999999999999822, 2.350000000000000089 ) ) ;
#928 = DIRECTION ( 'NONE',  ( -0.000000000000000000, -1.000000000000000000, -0.000000000000000000 ) ) ;
#929 = ADVANCED_FACE ( 'NONE', ( #1216 ), #1199, .F. ) ;
#930 = EDGE_CURVE ( 'NONE', #510, #470, #465, .T. ) ;
#931 = DIRECTION ( 'NONE',  ( 0.000000000000000000, 1.000000000000000000, -0.000000000000000000 ) ) ;
#932 = VERTEX_POINT ( 'NONE', #283 ) ;
#933 = DIRECTION ( 'NONE',  ( 0.000000000000000000, 0.000000000000000000, -1.000000000000000000 ) ) ;
#934 = VERTEX_POINT ( 'NONE', #751 ) ;
#935 = SURFACE_SIDE_STYLE ('',( #1030 ) ) ;
#936 = PLANE ( 'NONE',  #76 ) ;
#937 = VECTOR ( 'NONE', #39, 1000.000000000000000 ) ;
#938 =( NAMED_UNIT ( * ) SI_UNIT ( $, .STERADIAN. ) SOLID_ANGLE_UNIT ( ) );
#939 = VECTOR ( 'NONE', #863, 1000.000000000000000 ) ;
#940 = VECTOR ( 'NONE', #253, 1000.000000000000000 ) ;
#941 = PRESENTATION_LAYER_ASSIGNMENT (  '', '', ( #313 ) ) ;
#942 = VERTEX_POINT ( 'NONE', #1130 ) ;
#943 =( NAMED_UNIT ( * ) SI_UNIT ( $, .STERADIAN. ) SOLID_ANGLE_UNIT ( ) );
#944 = ORIENTED_EDGE ( 'NONE', *, *, #567, .F. ) ;
#945 = SURFACE_SIDE_STYLE ('',( #846 ) ) ;
#946 = EDGE_CURVE ( 'NONE', #452, #542, #217, .T. ) ;
#947 = SURFACE_SIDE_STYLE ('',( #1235 ) ) ;
#948 = FACE_OUTER_BOUND ( 'NONE', #845, .T. ) ;
#949 = VERTEX_POINT ( 'NONE', #1054 ) ;
#950 = LINE ( 'NONE', #487, #13 ) ;
#951 =( LENGTH_UNIT ( ) NAMED_UNIT ( * ) SI_UNIT ( .MILLI., .METRE. ) );
#952 = EDGE_CURVE ( 'NONE', #227, #510, #485, .T. ) ;
#953 = CARTESIAN_POINT ( 'NONE',  ( 4.497224362268003262, 2.499999999999999556, 0.7500000000000002220 ) ) ;
#954 = AXIS2_PLACEMENT_3D ( 'NONE', #1060, #966, #312 ) ;
#955 = VERTEX_POINT ( 'NONE', #497 ) ;
#956 = COLOUR_RGB ( '',0.6666666666666666297, 0.6980392156862744724, 0.7686274509803920907 ) ;
#957 = LINE ( 'NONE', #860, #661 ) ;
#958 = COLOUR_RGB ( '',0.6666666666666666297, 0.6980392156862744724, 0.7686274509803920907 ) ;
#959 = DIRECTION ( 'NONE',  ( 0.000000000000000000, 1.000000000000000000, 0.000000000000000000 ) ) ;
#960 = CARTESIAN_POINT ( 'NONE',  ( 6.749999999999997335, 2.499999999999999556, -0.7500000000000002220 ) ) ;
#961 = ADVANCED_FACE ( 'NONE', ( #296 ), #189, .F. ) ;
#962 = ORIENTED_EDGE ( 'NONE', *, *, #123, .T. ) ;
#963 = CARTESIAN_POINT ( 'NONE',  ( -6.300000000000002487, 4.500000000000000000, -6.250000000000001776 ) ) ;
#964 = DIRECTION ( 'NONE',  ( -1.000000000000000000, 0.000000000000000000, -0.000000000000000000 ) ) ;
#965 =( LENGTH_UNIT ( ) NAMED_UNIT ( * ) SI_UNIT ( .MILLI., .METRE. ) );
#966 = DIRECTION ( 'NONE',  ( 0.000000000000000000, 1.000000000000000000, 0.000000000000000000 ) ) ;
#967 = ORIENTED_EDGE ( 'NONE', *, *, #1053, .T. ) ;
#968 = SURFACE_STYLE_FILL_AREA ( #207 ) ;
#969 = EDGE_CURVE ( 'NONE', #201, #542, #856, .T. ) ;
#970 =( NAMED_UNIT ( * ) PLANE_ANGLE_UNIT ( ) SI_UNIT ( $, .RADIAN. ) );
#971 = UNCERTAINTY_MEASURE_WITH_UNIT (LENGTH_MEASURE( 1.000000000000000082E-05 ), #611, 'distance_accuracy_value', 'NONE');
#972 = ORIENTED_EDGE ( 'NONE', *, *, #794, .F. ) ;
#973 = DIRECTION ( 'NONE',  ( 0.000000000000000000, 0.000000000000000000, -1.000000000000000000 ) ) ;
#974 = VECTOR ( 'NONE', #368, 1000.000000000000000 ) ;
#975 = STYLED_ITEM ( 'NONE', ( #46 ), #1182 ) ;
#976 = AXIS2_PLACEMENT_3D ( 'NONE', #349, #1073, #713 ) ;
#977 = EDGE_CURVE ( 'NONE', #80, #955, #674, .T. ) ;
#978 = ORIENTED_EDGE ( 'NONE', *, *, #83, .F. ) ;
#979 = AXIS2_PLACEMENT_3D ( 'NONE', #981, #322, #701 ) ;
#980 = ORIENTED_EDGE ( 'NONE', *, *, #646, .T. ) ;
#981 = CARTESIAN_POINT ( 'NONE',  ( -6.300000000000002487, 4.500000000000000000, -6.250000000000001776 ) ) ;
#982 = DIRECTION ( 'NONE',  ( 1.000000000000000000, 0.000000000000000000, 0.000000000000000000 ) ) ;
#983 = CARTESIAN_POINT ( 'NONE',  ( -6.750000000000000888, 3.499999999999999556, 0.7499999999999997780 ) ) ;
#984 = ORIENTED_EDGE ( 'NONE', *, *, #1170, .T. ) ;
#985 = ADVANCED_FACE ( 'NONE', ( #570 ), #397, .F. ) ;
#986 = EDGE_CURVE ( 'NONE', #1000, #26, #385, .T. ) ;
#987 = SURFACE_STYLE_FILL_AREA ( #534 ) ;
#988 = ORIENTED_EDGE ( 'NONE', *, *, #681, .T. ) ;
#989 = CARTESIAN_POINT ( 'NONE',  ( -5.800000000000003375, 4.500000000000000000, -6.250000000000001776 ) ) ;
#990 = AXIS2_PLACEMENT_3D ( 'NONE', #258, #1127, #933 ) ;
#991 = FILL_AREA_STYLE ('',( #616 ) ) ;
#992 = LINE ( 'NONE', #1096, #242 ) ;
#993 =( GEOMETRIC_REPRESENTATION_CONTEXT ( 3 ) GLOBAL_UNCERTAINTY_ASSIGNED_CONTEXT ( ( #996 ) ) GLOBAL_UNIT_ASSIGNED_CONTEXT ( ( #569, #92, #943 ) ) REPRESENTATION_CONTEXT ( 'NONE', 'WORKASPACE' ) );
#994 = AXIS2_PLACEMENT_3D ( 'NONE', #556, #742, #546 ) ;
#995 = ORIENTED_EDGE ( 'NONE', *, *, #1065, .F. ) ;
#996 = UNCERTAINTY_MEASURE_WITH_UNIT (LENGTH_MEASURE( 1.000000000000000082E-05 ), #569, 'distance_accuracy_value', 'NONE');
#997 =( NAMED_UNIT ( * ) SI_UNIT ( $, .STERADIAN. ) SOLID_ANGLE_UNIT ( ) );
#998 = VERTEX_POINT ( 'NONE', #770 ) ;
#999 = CARTESIAN_POINT ( 'NONE',  ( 6.749999999999997335, 4.500000000000000000, 2.349999999999996536 ) ) ;
#1000 = VERTEX_POINT ( 'NONE', #317 ) ;
#1001 = DIRECTION ( 'NONE',  ( -1.000000000000000000, -0.000000000000000000, -0.000000000000000000 ) ) ;
#1002 = LINE ( 'NONE', #47, #803 ) ;
#1003 = LINE ( 'NONE', #714, #327 ) ;
#1004 = DIRECTION ( 'NONE',  ( 1.000000000000000000, 0.000000000000000000, 0.000000000000000000 ) ) ;
#1005 = VERTEX_POINT ( 'NONE', #576 ) ;
#1006 = EDGE_CURVE ( 'NONE', #291, #1000, #1149, .T. ) ;
#1007 = EDGE_CURVE ( 'NONE', #896, #176, #1043, .T. ) ;
#1008 = LINE ( 'NONE', #152, #918 ) ;
#1009 =( NAMED_UNIT ( * ) SI_UNIT ( $, .STERADIAN. ) SOLID_ANGLE_UNIT ( ) );
#1010 = ORIENTED_EDGE ( 'NONE', *, *, #687, .T. ) ;
#1011 = ORIENTED_EDGE ( 'NONE', *, *, #426, .F. ) ;
#1012 =( NAMED_UNIT ( * ) SI_UNIT ( $, .STERADIAN. ) SOLID_ANGLE_UNIT ( ) );
#1013 = ADVANCED_FACE ( 'NONE', ( #948 ), #877, .T. ) ;
#1014 = DIRECTION ( 'NONE',  ( 0.000000000000000000, 0.000000000000000000, 1.000000000000000000 ) ) ;
#1015 = VECTOR ( 'NONE', #363, 1000.000000000000000 ) ;
#1016 = AXIS2_PLACEMENT_3D ( 'NONE', #358, #250, #1004 ) ;
#1017 = LINE ( 'NONE', #165, #700 ) ;
#1018 = CARTESIAN_POINT ( 'NONE',  ( -6.300000000000001599, 2.499999999999999556, -2.350000000000000089 ) ) ;
#1019 = EDGE_LOOP ( 'NONE', ( #571, #369, #421, #418, #153, #972 ) ) ;
#1020 = SURFACE_SIDE_STYLE ('',( #643 ) ) ;
#1021 = LINE ( 'NONE', #91, #196 ) ;
#1022 = UNCERTAINTY_MEASURE_WITH_UNIT (LENGTH_MEASURE( 1.000000000000000082E-05 ), #790, 'distance_accuracy_value', 'NONE');
#1023 = ORIENTED_EDGE ( 'NONE', *, *, #83, .T. ) ;
#1024 = CARTESIAN_POINT ( 'NONE',  ( 6.299999999999998934, 4.500000000000000000, 5.750000000000000000 ) ) ;
#1025 = SURFACE_STYLE_FILL_AREA ( #1210 ) ;
#1026 = FILL_AREA_STYLE_COLOUR ( '', #1212 ) ;
#1027 = EDGE_CURVE ( 'NONE', #1231, #119, #1229, .T. ) ;
#1028 =( NAMED_UNIT ( * ) PLANE_ANGLE_UNIT ( ) SI_UNIT ( $, .RADIAN. ) );
#1029 = ORIENTED_EDGE ( 'NONE', *, *, #513, .T. ) ;
#1030 = SURFACE_STYLE_FILL_AREA ( #301 ) ;
#1031 = FACE_OUTER_BOUND ( 'NONE', #599, .T. ) ;
#1032 = VECTOR ( 'NONE', #382, 1000.000000000000000 ) ;
#1033 = PRESENTATION_LAYER_ASSIGNMENT (  '', '', ( #372 ) ) ;
#1034 = STYLED_ITEM ( 'NONE', ( #1094 ), #79 ) ;
#1035 = DIRECTION ( 'NONE',  ( -0.000000000000000000, -1.000000000000000000, -0.000000000000000000 ) ) ;
#1036 = VECTOR ( 'NONE', #492, 1000.000000000000000 ) ;
#1037 = ORIENTED_EDGE ( 'NONE', *, *, #65, .T. ) ;
#1038 = SURFACE_STYLE_USAGE ( .BOTH. , #1020 ) ;
#1039 = EDGE_CURVE ( 'NONE', #321, #778, #707, .T. ) ;
#1040 = SURFACE_SIDE_STYLE ('',( #659 ) ) ;
#1041 = DIRECTION ( 'NONE',  ( -9.027796614315165872E-32, 1.000000000000000000, -4.336808689942017243E-16 ) ) ;
#1042 = PRESENTATION_STYLE_ASSIGNMENT (( #471 ) ) ;
#1043 = LINE ( 'NONE', #1236, #780 ) ;
#1044 = ORIENTED_EDGE ( 'NONE', *, *, #1208, .F. ) ;
#1045 = CARTESIAN_POINT ( 'NONE',  ( -6.750000000000000888, 2.499999999999999556, 2.350000000000000089 ) ) ;
#1046 = DIRECTION ( 'NONE',  ( -0.000000000000000000, -1.000000000000000000, -0.000000000000000000 ) ) ;
#1047 = EDGE_CURVE ( 'NONE', #1098, #127, #1083, .T. ) ;
#1048 = EDGE_CURVE ( 'NONE', #80, #455, #992, .T. ) ;
#1049 = DIRECTION ( 'NONE',  ( -0.000000000000000000, -0.000000000000000000, 1.000000000000000000 ) ) ;
#1050 = VERTEX_POINT ( 'NONE', #905 ) ;
#1051 = LINE ( 'NONE', #963, #290 ) ;
#1052 = CARTESIAN_POINT ( 'NONE',  ( -6.300000000000001599, 2.499999999999999556, -0.7500000000000002220 ) ) ;
#1053 = EDGE_CURVE ( 'NONE', #731, #171, #625, .T. ) ;
#1054 = CARTESIAN_POINT ( 'NONE',  ( 6.749999999999997335, 2.499999999999999556, -0.7500000000000002220 ) ) ;
#1055 = CARTESIAN_POINT ( 'NONE',  ( 6.299999999999997158, 4.500000000000000000, -6.250000000000001776 ) ) ;
#1056 = VECTOR ( 'NONE', #807, 1000.000000000000000 ) ;
#1057 = ORIENTED_EDGE ( 'NONE', *, *, #1177, .F. ) ;
#1058 = LINE ( 'NONE', #596, #223 ) ;
#1059 = VECTOR ( 'NONE', #264, 1000.000000000000000 ) ;
#1060 = CARTESIAN_POINT ( 'NONE',  ( 0.000000000000000000, 4.500000000000000000, 0.000000000000000000 ) ) ;
#1061 = FACE_OUTER_BOUND ( 'NONE', #182, .T. ) ;
#1062 = ORIENTED_EDGE ( 'NONE', *, *, #1065, .T. ) ;
#1063 = DIRECTION ( 'NONE',  ( 0.000000000000000000, 0.000000000000000000, 1.000000000000000000 ) ) ;
#1064 = LINE ( 'NONE', #883, #1036 ) ;
#1065 = EDGE_CURVE ( 'NONE', #151, #740, #728, .T. ) ;
#1066 = ORIENTED_EDGE ( 'NONE', *, *, #108, .F. ) ;
#1067 = DIRECTION ( 'NONE',  ( -0.000000000000000000, -0.000000000000000000, -1.000000000000000000 ) ) ;
#1068 = PRODUCT ( 'SRP1245A-220M', 'SRP1245A-220M', '', ( #61 ) ) ;
#1069 = EDGE_LOOP ( 'NONE', ( #433, #359, #284, #586 ) ) ;
#1070 = EDGE_LOOP ( 'NONE', ( #60, #688, #364, #458, #747, #1044, #1158, #626 ) ) ;
#1071 = CARTESIAN_POINT ( 'NONE',  ( 6.299999999999998046, 2.499999999999999556, 2.349999999999996536 ) ) ;
#1072 = ORIENTED_EDGE ( 'NONE', *, *, #20, .F. ) ;
#1073 = DIRECTION ( 'NONE',  ( 0.000000000000000000, 1.000000000000000000, 0.000000000000000000 ) ) ;
#1074 = STYLED_ITEM ( 'NONE', ( #170 ), #929 ) ;
#1075 = AXIS2_PLACEMENT_3D ( 'NONE', #705, #710, #325 ) ;
#1076 = PRODUCT_DEFINITION_FORMATION_WITH_SPECIFIED_SOURCE ( 'ANY', '', #1068, .NOT_KNOWN. ) ;
#1077 = VECTOR ( 'NONE', #450, 1000.000000000000000 ) ;
#1078 = CARTESIAN_POINT ( 'NONE',  ( 5.799999999999997158, 4.500000000000000000, -5.750000000000001776 ) ) ;
#1079 = ORIENTED_EDGE ( 'NONE', *, *, #1209, .T. ) ;
#1080 =( GEOMETRIC_REPRESENTATION_CONTEXT ( 3 ) GLOBAL_UNCERTAINTY_ASSIGNED_CONTEXT ( ( #71 ) ) GLOBAL_UNIT_ASSIGNED_CONTEXT ( ( #522, #131, #324 ) ) REPRESENTATION_CONTEXT ( 'NONE', 'WORKASPACE' ) );
#1081 = EDGE_CURVE ( 'NONE', #942, #1000, #632, .T. ) ;
#1082 = ORIENTED_EDGE ( 'NONE', *, *, #251, .F. ) ;
#1083 = LINE ( 'NONE', #787, #1211 ) ;
#1084 = DIRECTION ( 'NONE',  ( -0.000000000000000000, -0.000000000000000000, 1.000000000000000000 ) ) ;
#1085 = FACE_OUTER_BOUND ( 'NONE', #693, .T. ) ;
#1086 = ORIENTED_EDGE ( 'NONE', *, *, #575, .T. ) ;
#1087 = DIRECTION ( 'NONE',  ( 0.000000000000000000, -1.000000000000000000, 0.000000000000000000 ) ) ;
#1088 = CARTESIAN_POINT ( 'NONE',  ( 6.749999999999997335, 2.499999999999999556, 2.349999999999996536 ) ) ;
#1089 = VERTEX_POINT ( 'NONE', #545 ) ;
#1090 = FILL_AREA_STYLE_COLOUR ( '', #1095 ) ;
#1091 = APPLICATION_CONTEXT ( 'automotive_design' ) ;
#1092 = ORIENTED_EDGE ( 'NONE', *, *, #1081, .F. ) ;
#1093 = VECTOR ( 'NONE', #247, 1000.000000000000000 ) ;
#1094 = PRESENTATION_STYLE_ASSIGNMENT (( #215 ) ) ;
#1095 = COLOUR_RGB ( '',0.6666666666666666297, 0.6980392156862744724, 0.7686274509803920907 ) ;
#1096 = CARTESIAN_POINT ( 'NONE',  ( -6.750000000000000888, 2.499999999999999556, 2.350000000000000089 ) ) ;
#1097 = AXIS2_PLACEMENT_3D ( 'NONE', #605, #23, #638 ) ;
#1098 = VERTEX_POINT ( 'NONE', #429 ) ;
#1099 = LINE ( 'NONE', #232, #641 ) ;
#1100 = EDGE_CURVE ( 'NONE', #542, #111, #815, .T. ) ;
#1101 = SURFACE_STYLE_FILL_AREA ( #334 ) ;
#1102 = PLANE ( 'NONE',  #4 ) ;
#1103 = ORIENTED_EDGE ( 'NONE', *, *, #339, .T. ) ;
#1104 = CARTESIAN_POINT ( 'NONE',  ( -6.300000000000001599, 2.499999999999999556, 2.350000000000000089 ) ) ;
#1105 = PRESENTATION_STYLE_ASSIGNMENT (( #820 ) ) ;
#1106 = PRESENTATION_STYLE_ASSIGNMENT (( #451 ) ) ;
#1107 = VERTEX_POINT ( 'NONE', #717 ) ;
#1108 =( LENGTH_UNIT ( ) NAMED_UNIT ( * ) SI_UNIT ( .MILLI., .METRE. ) );
#1109 = ADVANCED_FACE ( 'NONE', ( #1203 ), #916, .F. ) ;
#1110 = ORIENTED_EDGE ( 'NONE', *, *, #629, .F. ) ;
#1111 = DIRECTION ( 'NONE',  ( 1.000000000000000000, -0.000000000000000000, -1.261617073437678443E-15 ) ) ;
#1112 = CARTESIAN_POINT ( 'NONE',  ( -6.750000000000000888, 2.499999999999999556, 2.350000000000000089 ) ) ;
#1113 = CARTESIAN_POINT ( 'NONE',  ( -5.800000000000000711, 0.000000000000000000, 5.750000000000000000 ) ) ;
#1114 = CARTESIAN_POINT ( 'NONE',  ( 3.999999999999998224, 4.500000000000000000, -2.350000000000000977 ) ) ;
#1115 = CARTESIAN_POINT ( 'NONE',  ( 6.749999999999997335, 4.799999999999999822, -2.350000000000001865 ) ) ;
#1116 = VERTEX_POINT ( 'NONE', #162 ) ;
#1117 = PLANE ( 'NONE',  #221 ) ;
#1118 = LINE ( 'NONE', #277, #637 ) ;
#1119 = FILL_AREA_STYLE ('',( #635 ) ) ;
#1120 = VECTOR ( 'NONE', #1152, 1000.000000000000000 ) ;
#1121 = STYLED_ITEM ( 'NONE', ( #1106 ), #1109 ) ;
#1122 = VECTOR ( 'NONE', #331, 1000.000000000000000 ) ;
#1123 = VECTOR ( 'NONE', #587, 1000.000000000000000 ) ;
#1124 = FILL_AREA_STYLE ('',( #743 ) ) ;
#1125 = ORIENTED_EDGE ( 'NONE', *, *, #240, .T. ) ;
#1126 =( NAMED_UNIT ( * ) SI_UNIT ( $, .STERADIAN. ) SOLID_ANGLE_UNIT ( ) );
#1127 = DIRECTION ( 'NONE',  ( 1.000000000000000000, 0.000000000000000000, 0.000000000000000000 ) ) ;
#1128 = ORIENTED_EDGE ( 'NONE', *, *, #567, .T. ) ;
#1129 = PLANE ( 'NONE',  #781 ) ;
#1130 = CARTESIAN_POINT ( 'NONE',  ( 6.749999999999997335, 3.499999999999999556, 0.7500000000000002220 ) ) ;
#1131 = ORIENTED_EDGE ( 'NONE', *, *, #309, .T. ) ;
#1132 = CARTESIAN_POINT ( 'NONE',  ( -6.750000000000000888, 2.499999999999999556, -2.350000000000000089 ) ) ;
#1133 = PRESENTATION_STYLE_ASSIGNMENT (( #413 ) ) ;
#1134 = STYLED_ITEM ( 'NONE', ( #88 ), #280 ) ;
#1135 =( GEOMETRIC_REPRESENTATION_CONTEXT ( 3 ) GLOBAL_UNCERTAINTY_ASSIGNED_CONTEXT ( ( #651 ) ) GLOBAL_UNIT_ASSIGNED_CONTEXT ( ( #951, #862, #1218 ) ) REPRESENTATION_CONTEXT ( 'NONE', 'WORKASPACE' ) );
#1136 = FILL_AREA_STYLE_COLOUR ( '', #132 ) ;
#1137 = EDGE_CURVE ( 'NONE', #932, #201, #831, .T. ) ;
#1138 = VECTOR ( 'NONE', #1001, 1000.000000000000000 ) ;
#1139 = ORIENTED_EDGE ( 'NONE', *, *, #946, .F. ) ;
#1140 = DIRECTION ( 'NONE',  ( -1.000000000000000000, -0.000000000000000000, -0.000000000000000000 ) ) ;
#1141 = DIRECTION ( 'NONE',  ( 1.000000000000000000, 0.000000000000000000, -0.000000000000000000 ) ) ;
#1142 = CARTESIAN_POINT ( 'NONE',  ( -5.800000000000003375, 4.500000000000000000, -5.750000000000001776 ) ) ;
#1143 =( LENGTH_UNIT ( ) NAMED_UNIT ( * ) SI_UNIT ( .MILLI., .METRE. ) );
#1144 = CARTESIAN_POINT ( 'NONE',  ( -6.300000000000002487, 4.500000000000000000, -5.750000000000001776 ) ) ;
#1145 = FACE_OUTER_BOUND ( 'NONE', #711, .T. ) ;
#1146 =( NAMED_UNIT ( * ) SI_UNIT ( $, .STERADIAN. ) SOLID_ANGLE_UNIT ( ) );
#1147 = ORIENTED_EDGE ( 'NONE', *, *, #757, .T. ) ;
#1148 = DIRECTION ( 'NONE',  ( -1.000000000000000000, -0.000000000000000000, -0.000000000000000000 ) ) ;
#1149 = LINE ( 'NONE', #953, #267 ) ;
#1150 = EDGE_LOOP ( 'NONE', ( #1180, #783, #1183, #914, #535, #792, #706, #386 ) ) ;
#1151 = DIRECTION ( 'NONE',  ( 0.000000000000000000, -1.000000000000000000, 0.000000000000000000 ) ) ;
#1152 = DIRECTION ( 'NONE',  ( 0.000000000000000000, 0.000000000000000000, 1.000000000000000000 ) ) ;
#1153 = MECHANICAL_DESIGN_GEOMETRIC_PRESENTATION_REPRESENTATION (  '', ( #1034 ), #518 ) ;
#1154 = ORIENTED_EDGE ( 'NONE', *, *, #757, .F. ) ;
#1155 = DIRECTION ( 'NONE',  ( -0.000000000000000000, -1.000000000000000000, -0.000000000000000000 ) ) ;
#1156 =( GEOMETRIC_REPRESENTATION_CONTEXT ( 3 ) GLOBAL_UNCERTAINTY_ASSIGNED_CONTEXT ( ( #1204 ) ) GLOBAL_UNIT_ASSIGNED_CONTEXT ( ( #811, #627, #241 ) ) REPRESENTATION_CONTEXT ( 'NONE', 'WORKASPACE' ) );
#1157 = CARTESIAN_POINT ( 'NONE',  ( 6.299999999999998046, 2.499999999999999556, -0.7500000000000002220 ) ) ;
#1158 = ORIENTED_EDGE ( 'NONE', *, *, #393, .F. ) ;
#1159 = EDGE_CURVE ( 'NONE', #201, #788, #10, .T. ) ;
#1160 = FILL_AREA_STYLE ('',( #1136 ) ) ;
#1161 = PLANE ( 'NONE',  #979 ) ;
#1162 = LINE ( 'NONE', #1045, #861 ) ;
#1163 = ORIENTED_EDGE ( 'NONE', *, *, #500, .T. ) ;
#1164 = ORIENTED_EDGE ( 'NONE', *, *, #1177, .T. ) ;
#1165 = PRESENTATION_STYLE_ASSIGNMENT (( #222 ) ) ;
#1166 = DIRECTION ( 'NONE',  ( 1.000000000000000000, -0.000000000000000000, -1.261617073437678443E-15 ) ) ;
#1167 = CARTESIAN_POINT ( 'NONE',  ( 5.799999999999999822, 0.000000000000000000, 6.249999999999999112 ) ) ;
#1168 = DIRECTION ( 'NONE',  ( 0.000000000000000000, -0.000000000000000000, 1.000000000000000000 ) ) ;
#1169 = STYLED_ITEM ( 'NONE', ( #1042 ), #214 ) ;
#1170 = EDGE_CURVE ( 'NONE', #40, #881, #533, .T. ) ;
#1171 = AXIS2_PLACEMENT_3D ( 'NONE', #555, #288, #645 ) ;
#1172 = MECHANICAL_DESIGN_GEOMETRIC_PRESENTATION_REPRESENTATION (  '', ( #859 ), #57 ) ;
#1173 = DIRECTION ( 'NONE',  ( 0.000000000000000000, 1.000000000000000000, 0.000000000000000000 ) ) ;
#1174 = FACE_OUTER_BOUND ( 'NONE', #604, .T. ) ;
#1175 = CARTESIAN_POINT ( 'NONE',  ( -5.800000000000003375, 0.000000000000000000, -6.250000000000001776 ) ) ;
#1176 = CARTESIAN_POINT ( 'NONE',  ( 5.799999999999997158, 0.000000000000000000, -5.750000000000001776 ) ) ;
#1177 = EDGE_CURVE ( 'NONE', #470, #291, #835, .T. ) ;
#1178 = DIRECTION ( 'NONE',  ( 0.000000000000000000, -1.000000000000000000, 0.000000000000000000 ) ) ;
#1179 = DIRECTION ( 'NONE',  ( -1.261617073437678443E-15, 0.000000000000000000, -1.000000000000000000 ) ) ;
#1180 = ORIENTED_EDGE ( 'NONE', *, *, #309, .F. ) ;
#1181 = DIRECTION ( 'NONE',  ( -0.000000000000000000, -0.000000000000000000, 1.000000000000000000 ) ) ;
#1182 = ADVANCED_FACE ( 'NONE', ( #809 ), #739, .F. ) ;
#1183 = ORIENTED_EDGE ( 'NONE', *, *, #902, .F. ) ;
#1184 = CARTESIAN_POINT ( 'NONE',  ( 3.999999999999998224, 4.799999999999999822, -2.350000000000000977 ) ) ;
#1185 = LINE ( 'NONE', #335, #917 ) ;
#1186 = ORIENTED_EDGE ( 'NONE', *, *, #273, .T. ) ;
#1187 =( GEOMETRIC_REPRESENTATION_CONTEXT ( 3 ) GLOBAL_UNCERTAINTY_ASSIGNED_CONTEXT ( ( #376 ) ) GLOBAL_UNIT_ASSIGNED_CONTEXT ( ( #913, #1028, #166 ) ) REPRESENTATION_CONTEXT ( 'NONE', 'WORKASPACE' ) );
#1188 = LINE ( 'NONE', #927, #1191 ) ;
#1189 = COLOUR_RGB ( '',0.2980392156862745057, 0.2980392156862745057, 0.2980392156862745057 ) ;
#1190 = DIRECTION ( 'NONE',  ( -0.000000000000000000, -1.000000000000000000, -0.000000000000000000 ) ) ;
#1191 = VECTOR ( 'NONE', #443, 1000.000000000000000 ) ;
#1192 = VECTOR ( 'NONE', #748, 1000.000000000000000 ) ;
#1193 = EDGE_CURVE ( 'NONE', #838, #875, #1021, .T. ) ;
#1194 = ADVANCED_FACE ( 'NONE', ( #185 ), #178, .F. ) ;
#1195 = ORIENTED_EDGE ( 'NONE', *, *, #656, .T. ) ;
#1196 = CARTESIAN_POINT ( 'NONE',  ( -6.750000000000000888, 2.499999999999999556, 0.7500000000000002220 ) ) ;
#1197 = LINE ( 'NONE', #360, #388 ) ;
#1198 = CARTESIAN_POINT ( 'NONE',  ( -5.800000000000000711, 4.500000000000000000, 6.249999999999999112 ) ) ;
#1199 = PLANE ( 'NONE',  #990 ) ;
#1200 = ORIENTED_EDGE ( 'NONE', *, *, #736, .F. ) ;
#1201 = SHAPE_DEFINITION_REPRESENTATION ( #797, #280 ) ;
#1202 = CARTESIAN_POINT ( 'NONE',  ( -6.299999999999999822, 4.500000000000000000, 5.750000000000000000 ) ) ;
#1203 = FACE_OUTER_BOUND ( 'NONE', #507, .T. ) ;
#1204 = UNCERTAINTY_MEASURE_WITH_UNIT (LENGTH_MEASURE( 1.000000000000000082E-05 ), #811, 'distance_accuracy_value', 'NONE');
#1205 = CARTESIAN_POINT ( 'NONE',  ( -6.300000000000001599, 2.499999999999999556, 2.350000000000000089 ) ) ;
#1206 = ORIENTED_EDGE ( 'NONE', *, *, #608, .F. ) ;
#1207 =( NAMED_UNIT ( * ) PLANE_ANGLE_UNIT ( ) SI_UNIT ( $, .RADIAN. ) );
#1208 = EDGE_CURVE ( 'NONE', #187, #881, #379, .T. ) ;
#1209 = EDGE_CURVE ( 'NONE', #109, #1231, #549, .T. ) ;
#1210 = FILL_AREA_STYLE ('',( #456 ) ) ;
#1211 = VECTOR ( 'NONE', #1178, 1000.000000000000000 ) ;
#1212 = COLOUR_RGB ( '',0.6666666666666666297, 0.6980392156862744724, 0.7686274509803920907 ) ;
#1213 = VECTOR ( 'NONE', #871, 1000.000000000000000 ) ;
#1214 = AXIS2_PLACEMENT_3D ( 'NONE', #779, #760, #1063 ) ;
#1215 = ORIENTED_EDGE ( 'NONE', *, *, #261, .F. ) ;
#1216 = FACE_OUTER_BOUND ( 'NONE', #1070, .T. ) ;
#1217 = ORIENTED_EDGE ( 'NONE', *, *, #271, .F. ) ;
#1218 =( NAMED_UNIT ( * ) SI_UNIT ( $, .STERADIAN. ) SOLID_ANGLE_UNIT ( ) );
#1219 = DIRECTION ( 'NONE',  ( 1.000000000000000000, 0.000000000000000000, -3.154042683594196107E-16 ) ) ;
#1220 = PRODUCT_RELATED_PRODUCT_CATEGORY ( 'part', '', ( #1068 ) ) ;
#1221 = EDGE_CURVE ( 'NONE', #1107, #321, #823, .T. ) ;
#1222 = ORIENTED_EDGE ( 'NONE', *, *, #575, .F. ) ;
#1223 =( NAMED_UNIT ( * ) SI_UNIT ( $, .STERADIAN. ) SOLID_ANGLE_UNIT ( ) );
#1224 = DIRECTION ( 'NONE',  ( 1.000000000000000000, 0.000000000000000000, 0.000000000000000000 ) ) ;
#1225 = SURFACE_STYLE_USAGE ( .BOTH. , #945 ) ;
#1226 =( GEOMETRIC_REPRESENTATION_CONTEXT ( 3 ) GLOBAL_UNCERTAINTY_ASSIGNED_CONTEXT ( ( #912 ) ) GLOBAL_UNIT_ASSIGNED_CONTEXT ( ( #1108, #48, #938 ) ) REPRESENTATION_CONTEXT ( 'NONE', 'WORKASPACE' ) );
#1227 = COLOUR_RGB ( '',0.6666666666666666297, 0.6980392156862744724, 0.7686274509803920907 ) ;
#1228 = MECHANICAL_DESIGN_GEOMETRIC_PRESENTATION_REPRESENTATION (  '', ( #351 ), #993 ) ;
#1229 = LINE ( 'NONE', #303, #1120 ) ;
#1230 = VECTOR ( 'NONE', #282, 1000.000000000000000 ) ;
#1231 = VERTEX_POINT ( 'NONE', #667 ) ;
#1232 = CARTESIAN_POINT ( 'NONE',  ( -6.299999999999999822, 0.000000000000000000, 5.750000000000000000 ) ) ;
#1233 = FACE_OUTER_BOUND ( 'NONE', #1069, .T. ) ;
#1234 =( NAMED_UNIT ( * ) PLANE_ANGLE_UNIT ( ) SI_UNIT ( $, .RADIAN. ) );
#1235 = SURFACE_STYLE_FILL_AREA ( #786 ) ;
#1236 = CARTESIAN_POINT ( 'NONE',  ( -6.300000000000001599, 2.499999999999999556, -2.350000000000000089 ) ) ;
#1237 = ORIENTED_EDGE ( 'NONE', *, *, #736, .T. ) ;
#1238 = DIRECTION ( 'NONE',  ( -0.000000000000000000, 1.000000000000000000, -0.000000000000000000 ) ) ;
#1239 = CARTESIAN_POINT ( 'NONE',  ( 6.299999999999997158, 0.000000000000000000, -5.750000000000001776 ) ) ;
#1240 = DIRECTION ( 'NONE',  ( -0.000000000000000000, 1.000000000000000000, -0.000000000000000000 ) ) ;
#1241 = FILL_AREA_STYLE_COLOUR ( '', #621 ) ;
#1242 = DIRECTION ( 'NONE',  ( 0.000000000000000000, 0.000000000000000000, -1.000000000000000000 ) ) ;
ENDSEC;
END-ISO-10303-21;
